<svg width="34" height="44" viewBox="0 0 34 44" fill="none" xmlns="http://www.w3.org/2000/svg">
<mask id="path-1-inside-1_370_769" fill="white">
<path d="M22.2737 9.3913C21.4614 9.96536 20.7553 10.7261 20.1975 11.6282C19.6396 12.5304 19.2414 13.5555 19.0265 14.6427C18.8116 15.7299 18.7844 16.8569 18.9465 17.9568C19.1086 19.0566 19.4568 20.1068 19.9702 21.0448C20.4836 21.9829 21.1519 22.7897 21.9352 23.4173C22.7185 24.0448 23.6009 24.4803 24.5299 24.6978C25.4589 24.9154 26.4156 24.9105 27.343 24.6835C28.2703 24.4565 29.1495 24.012 29.9282 23.3765L25.9065 16.5317L22.2737 9.3913Z"/>
</mask>
<path d="M22.2737 9.3913C21.4614 9.96536 20.7553 10.7261 20.1975 11.6282C19.6396 12.5304 19.2414 13.5555 19.0265 14.6427C18.8116 15.7299 18.7844 16.8569 18.9465 17.9568C19.1086 19.0566 19.4568 20.1068 19.9702 21.0448C20.4836 21.9829 21.1519 22.7897 21.9352 23.4173C22.7185 24.0448 23.6009 24.4803 24.5299 24.6978C25.4589 24.9154 26.4156 24.9105 27.343 24.6835C28.2703 24.4565 29.1495 24.012 29.9282 23.3765L25.9065 16.5317L22.2737 9.3913Z" fill="white" stroke="white" stroke-width="2.4" mask="url(#path-1-inside-1_370_769)"/>
<mask id="path-2-inside-2_370_769" fill="white">
<path d="M30.1984 23.5705C30.9915 22.9701 31.6722 22.1866 32.2002 21.2667C32.7281 20.3467 33.0925 19.3091 33.2716 18.2154C33.4508 17.1217 33.441 15.9944 33.2429 14.9005C33.0448 13.8066 32.6624 12.7684 32.1185 11.8477C31.5746 10.927 30.8802 10.1425 30.0768 9.54099C29.2733 8.93946 28.3771 8.53314 27.4414 8.3462C26.5058 8.15926 25.5498 8.1955 24.6304 8.45279C23.711 8.71007 22.8468 9.18313 22.0894 9.84385L26.3334 16.553L30.1984 23.5705Z"/>
</mask>
<path d="M30.1984 23.5705C30.9915 22.9701 31.6722 22.1866 32.2002 21.2667C32.7281 20.3467 33.0925 19.3091 33.2716 18.2154C33.4508 17.1217 33.441 15.9944 33.2429 14.9005C33.0448 13.8066 32.6624 12.7684 32.1185 11.8477C31.5746 10.927 30.8802 10.1425 30.0768 9.54099C29.2733 8.93946 28.3771 8.53314 27.4414 8.3462C26.5058 8.15926 25.5498 8.1955 24.6304 8.45279C23.711 8.71007 22.8468 9.18313 22.0894 9.84385L26.3334 16.553L30.1984 23.5705Z" fill="black" stroke="black" stroke-width="2.4" mask="url(#path-2-inside-2_370_769)"/>
<mask id="path-3-inside-3_370_769" fill="white">
<path d="M12.8127 23.5705C13.6057 22.9701 14.2865 22.1866 14.8144 21.2667C15.3424 20.3467 15.7068 19.3091 15.8859 18.2154C16.065 17.1217 16.0553 15.9944 15.8572 14.9005C15.6591 13.8066 15.2767 12.7684 14.7328 11.8477C14.1889 10.927 13.4945 10.1425 12.691 9.54099C11.8875 8.93946 10.9913 8.53314 10.0557 8.3462C9.12004 8.15926 8.16408 8.1955 7.24465 8.45279C6.32521 8.71007 5.46109 9.18313 4.70366 9.84385L8.94767 16.553L12.8127 23.5705Z"/>
</mask>
<path d="M12.8127 23.5705C13.6057 22.9701 14.2865 22.1866 14.8144 21.2667C15.3424 20.3467 15.7068 19.3091 15.8859 18.2154C16.065 17.1217 16.0553 15.9944 15.8572 14.9005C15.6591 13.8066 15.2767 12.7684 14.7328 11.8477C14.1889 10.927 13.4945 10.1425 12.691 9.54099C11.8875 8.93946 10.9913 8.53314 10.0557 8.3462C9.12004 8.15926 8.16408 8.1955 7.24465 8.45279C6.32521 8.71007 5.46109 9.18313 4.70366 9.84385L8.94767 16.553L12.8127 23.5705Z" fill="black" stroke="black" stroke-width="2.4" mask="url(#path-3-inside-3_370_769)"/>
<mask id="path-4-inside-4_370_769" fill="white">
<path d="M5.11772 9.3913C4.30539 9.96536 3.59931 10.7261 3.04147 11.6282C2.48362 12.5304 2.08541 13.5555 1.87051 14.6427C1.65561 15.7299 1.62841 16.8569 1.79053 17.9568C1.95264 19.0566 2.30077 20.1068 2.8142 21.0448C3.32763 21.9829 3.99587 22.7897 4.7792 23.4173C5.56252 24.0448 6.44493 24.4803 7.37394 24.6978C8.30294 24.9154 9.25958 24.9105 10.187 24.6835C11.1143 24.4565 11.9935 24.012 12.7722 23.3765L8.7505 16.5317L5.11772 9.3913Z"/>
</mask>
<path d="M5.11772 9.3913C4.30539 9.96536 3.59931 10.7261 3.04147 11.6282C2.48362 12.5304 2.08541 13.5555 1.87051 14.6427C1.65561 15.7299 1.62841 16.8569 1.79053 17.9568C1.95264 19.0566 2.30077 20.1068 2.8142 21.0448C3.32763 21.9829 3.99587 22.7897 4.7792 23.4173C5.56252 24.0448 6.44493 24.4803 7.37394 24.6978C8.30294 24.9154 9.25958 24.9105 10.187 24.6835C11.1143 24.4565 11.9935 24.012 12.7722 23.3765L8.7505 16.5317L5.11772 9.3913Z" fill="white" stroke="white" stroke-width="2.4" mask="url(#path-4-inside-4_370_769)"/>
<path d="M26.0352 8.80176C29.8772 8.80176 33.0859 12.2402 33.0859 16.6016C33.0858 20.9629 29.8771 24.4004 26.0352 24.4004C22.1934 24.4001 18.9854 20.9627 18.9854 16.6016C18.9854 12.2404 22.1934 8.80205 26.0352 8.80176Z" stroke="black" stroke-width="1.2"/>
<path d="M8.64941 8.80176C12.4914 8.80176 15.7002 12.2402 15.7002 16.6016C15.7001 20.9629 12.4914 24.4004 8.64941 24.4004C4.80767 24.4001 1.5997 20.9627 1.59961 16.6016C1.59961 12.2404 4.80761 8.80205 8.64941 8.80176Z" stroke="black" stroke-width="1.2"/>
<circle cx="12.2826" cy="12.7472" r="1.51376" fill="white"/>
<circle cx="29.4386" cy="12.7472" r="1.51376" fill="white"/>
<circle cx="28.6817" cy="15.523" r="0.756881" fill="white"/>
<circle cx="11.5257" cy="15.523" r="0.756881" fill="white"/>
<path d="M18.2037 42.0981C14.4144 42.4172 10.3913 41.306 7.57374 38.8015C6.03796 37.5013 5.03325 35.7269 4.80817 33.9095C4.85796 32.6539 5.88406 31.5154 7.12689 31.0128C7.99811 30.6716 8.96119 30.5017 9.91679 30.394C12.8423 30.5563 15.1379 32.6302 17.6252 33.8716C18.0924 33.5399 18.4458 33.1371 18.8405 32.7531C19.8111 31.9004 20.9785 31.2463 22.1105 30.5692C23.6977 29.7457 25.3913 28.7018 27.3614 28.7821C30.487 29.104 32.4291 31.7574 31.4166 34.2984C30.9044 35.7885 29.6598 36.9055 28.3924 37.9041C25.744 40.2867 22.0549 41.7559 18.2037 42.0981ZM19.6734 40.9373C22.6667 40.4389 25.4845 39.1083 27.5858 37.2572C28.8129 36.2685 30.0689 35.2172 30.4831 33.7241C31.009 32.0164 29.9774 30.375 27.9813 29.8362C25.6695 29.2373 22.6835 31.4704 20.877 32.4848C19.848 33.119 19.1724 33.9966 18.2399 34.6791C17.9642 34.9628 17.4962 35.1018 17.2057 34.7001C14.9339 33.5835 12.9518 31.8658 10.3919 31.3436C9.30085 31.342 8.19808 31.6156 7.24895 32.0372C6.55276 32.5003 5.8842 33.1999 5.87557 34.0179C6.05965 35.0706 6.5146 36.1393 7.21385 37.029C10.0286 40.5113 15.2838 41.8545 19.6742 40.9403L19.6734 40.9373Z" fill="black"/>
<path d="M17.8426 42.1327C17.2545 41.938 17.5265 41.388 17.6239 41.0214C17.6482 39.8408 17.5056 38.6301 17.5204 37.4414C17.5027 36.4928 17.4737 35.53 17.1552 34.5994C17.0001 34.3069 16.9744 33.9126 17.3668 33.7991C18.735 33.4588 18.5344 37.5394 18.6106 38.2758C18.615 39.1398 18.6436 39.9998 18.728 40.8665C18.6371 41.3317 18.6369 42.3187 17.8426 42.1327Z" fill="black"/>
<path d="M8.47618 38.114C7.10792 37.6057 11.1273 33.9051 11.5144 33.127C11.8008 32.7417 12.1251 32.3759 12.3685 31.9657C12.6551 31.4294 13.6189 31.8444 13.3461 32.3913C13.2198 32.618 13.0762 32.8348 12.906 33.0335C11.9316 34.4173 10.708 35.6079 9.73695 36.9655C9.5112 37.2602 9.29926 37.5655 9.18032 37.9068C9.07725 38.1393 8.73714 38.2217 8.47875 38.1104L8.47618 38.114Z" fill="black"/>
<path d="M27.3711 37.1094C26.0015 35.6593 24.7084 34.2254 23.4469 32.7124C23.1316 32.3502 22.8463 31.9669 22.5224 31.6126C22.3315 31.4097 22.405 31.0985 22.6263 30.9652C22.8544 30.818 23.1986 30.8892 23.3697 31.0986C23.9398 31.7495 24.474 32.4257 25.0441 33.0766C26.0465 34.2856 27.1475 35.4492 28.2192 36.5985C28.634 37.108 27.8082 37.6216 27.3694 37.1161L27.3711 37.1094Z" fill="black"/>
<path d="M0.200729 5.20901C-0.0931305 4.76397 0.546536 4.48548 0.837209 4.25936C1.69591 3.70195 2.60186 3.20761 3.56632 2.92205C4.61387 2.58189 5.71256 2.40874 6.78141 2.53402C7.16404 2.57529 7.53474 2.67423 7.9003 2.78789C8.12133 2.81857 8.31331 2.99965 8.24697 3.2553C8.1078 3.72822 7.65364 3.51777 7.3496 3.42531C5.50111 2.93621 3.50086 3.54492 1.80379 4.5105C1.45127 4.72107 1.10233 4.9452 0.774623 5.19521C0.602238 5.35641 0.338312 5.39597 0.199838 5.20562L0.200729 5.20901Z" fill="black"/>
<path d="M33.1811 5.20901C33.475 4.76397 32.8353 4.48548 32.5446 4.25936C31.6859 3.70195 30.78 3.20761 29.8155 2.92205C28.768 2.58189 27.6693 2.40874 26.6004 2.53402C26.2178 2.57529 25.8471 2.67423 25.4815 2.78789C25.2605 2.81857 25.0685 2.99965 25.1349 3.2553C25.274 3.72822 25.7282 3.51777 26.0322 3.42531C27.8807 2.93621 29.881 3.54492 31.5781 4.5105C31.9306 4.72107 32.2795 4.9452 32.6072 5.19521C32.7796 5.35641 33.0435 5.39597 33.182 5.20562L33.1811 5.20901Z" fill="black"/>
<path d="M0.741946 6.83217C0.590387 6.68921 0.576201 6.42752 0.727226 6.27767C1.66759 5.2757 2.98848 4.72509 4.30652 4.41819C5.63239 4.12435 6.99228 4.22687 8.2916 4.59255C8.6332 4.65672 9.20687 4.50794 9.24414 5.00356C9.24304 5.49347 8.68681 5.42109 8.34322 5.38836C6.33982 4.84477 4.38278 4.89622 2.52023 5.89045C2.18391 6.07139 1.85988 6.27366 1.57978 6.5378C1.36153 6.75813 1.04967 7.12055 0.739641 6.83094L0.741946 6.83217Z" fill="black"/>
<path d="M32.6404 6.83217C32.7919 6.68921 32.8061 6.42752 32.6551 6.27767C31.7147 5.2757 30.3938 4.72509 29.0758 4.41819C27.7499 4.12435 26.39 4.22687 25.0907 4.59255C24.7491 4.65672 24.1755 4.50794 24.1382 5.00356C24.1393 5.49347 24.6955 5.42109 25.0391 5.38836C27.0425 4.84477 28.9995 4.89622 30.8621 5.89045C31.1984 6.07139 31.5224 6.27366 31.8025 6.5378C32.0208 6.75813 32.3327 7.12055 32.6427 6.83094L32.6404 6.83217Z" fill="black"/>
</svg>
