<svg width="38" height="44" viewBox="0 0 38 44" fill="none" xmlns="http://www.w3.org/2000/svg">
<path d="M17.6253 43.8475C13.995 43.3012 10.6183 41.7753 7.80841 39.4533C5.22044 37.4278 2.7593 35.2151 0.73806 32.6316C0.254549 32.0501 1.12248 31.2852 1.64166 31.8706C1.84775 32.1282 2.05384 32.3857 2.26389 32.6433C5.13325 35.9332 8.45839 38.8718 12.3027 40.9987C14.4904 42.0602 16.9357 42.7119 19.3691 42.8485C20.9781 42.8368 22.5436 42.4192 24.0576 41.9041C27.1251 40.7138 29.7329 38.6728 31.8651 36.218C33.3196 34.5868 34.7265 32.8696 35.6658 30.8871C35.9115 30.2159 36.078 29.5173 36.2642 28.8266C36.3435 28.5183 36.6368 28.3036 36.9657 28.37C37.9248 28.6588 37.1163 29.8413 37.045 30.4852C36.5655 32.1945 35.4558 33.658 34.4055 35.0707C32.5824 37.2483 30.6761 39.4377 28.2784 41.0221C25.1752 43.0163 21.3785 44.4837 17.6293 43.8515L17.6253 43.8475Z" fill="black"/>
<path d="M2.35857 7.88925C1.99507 7.33874 2.78633 6.99426 3.14588 6.71455C4.20808 6.02504 5.32873 5.41355 6.52174 5.06032C7.81755 4.63956 9.17661 4.42537 10.4988 4.58034C10.9721 4.63139 11.4306 4.75378 11.8828 4.89437C12.1562 4.93231 12.3937 5.15631 12.3116 5.47255C12.1395 6.05754 11.5777 5.79722 11.2016 5.68285C8.91504 5.07784 6.44077 5.8308 4.34152 7.02521C3.90547 7.28568 3.47383 7.56292 3.06847 7.87218C2.85523 8.07158 2.52876 8.12052 2.35747 7.88506L2.35857 7.88925Z" fill="black"/>
<path d="M3.02769 9.89682C2.84021 9.71998 2.82267 9.39628 3.00948 9.21092C4.17269 7.9715 5.80661 7.2904 7.437 6.91078C9.07707 6.5473 10.7592 6.67412 12.3665 7.12645C12.789 7.20583 13.4986 7.02179 13.5447 7.63487C13.5434 8.24087 12.8553 8.15134 12.4303 8.11085C9.95215 7.43845 7.53133 7.50209 5.22739 8.73194C4.81137 8.95576 4.41056 9.20596 4.06407 9.53269C3.7941 9.80524 3.40834 10.2535 3.02484 9.8953L3.02769 9.89682Z" fill="black"/>
<path d="M34.1551 7.04892C34.5186 6.49841 33.7273 6.15393 33.3678 5.87422C32.3056 5.18471 31.1849 4.57322 29.9919 4.21999C28.6961 3.79922 27.3371 3.58504 26.0149 3.74001C25.5416 3.79106 25.0831 3.91345 24.6309 4.05404C24.3575 4.09198 24.12 4.31598 24.202 4.63222C24.3742 5.2172 24.936 4.95689 25.3121 4.84252C27.5986 4.23751 30.0729 4.99047 32.1722 6.18487C32.6082 6.44535 33.0398 6.72258 33.4452 7.03185C33.6584 7.23125 33.9849 7.28019 34.1562 7.04472L34.1551 7.04892Z" fill="black"/>
<path d="M33.4859 9.05698C33.6733 8.88014 33.6909 8.55643 33.5041 8.37107C32.3409 7.13166 30.7069 6.45055 29.0766 6.07093C27.4365 5.70745 25.7543 5.83428 24.1471 6.28661C23.7245 6.36599 23.0149 6.18195 22.9688 6.79503C22.9702 7.40103 23.6582 7.3115 24.0832 7.27101C26.5614 6.59861 28.9822 6.66224 31.2862 7.89209C31.7022 8.11591 32.103 8.36612 32.4495 8.69285C32.7195 8.9654 33.1052 9.4137 33.4887 9.05545L33.4859 9.05698Z" fill="black"/>
<mask id="path-6-inside-1_370_767" fill="white">
<path d="M22.2737 12.3913C21.4614 12.9654 20.7553 13.7261 20.1975 14.6282C19.6396 15.5304 19.2414 16.5555 19.0265 17.6427C18.8116 18.7299 18.7844 19.8569 18.9465 20.9568C19.1086 22.0566 19.4568 23.1068 19.9702 24.0448C20.4836 24.9829 21.1519 25.7897 21.9352 26.4173C22.7185 27.0448 23.6009 27.4803 24.5299 27.6978C25.4589 27.9154 26.4156 27.9105 27.343 27.6835C28.2703 27.4565 29.1495 27.012 29.9282 26.3765L25.9065 19.5317L22.2737 12.3913Z"/>
</mask>
<path d="M22.2737 12.3913C21.4614 12.9654 20.7553 13.7261 20.1975 14.6282C19.6396 15.5304 19.2414 16.5555 19.0265 17.6427C18.8116 18.7299 18.7844 19.8569 18.9465 20.9568C19.1086 22.0566 19.4568 23.1068 19.9702 24.0448C20.4836 24.9829 21.1519 25.7897 21.9352 26.4173C22.7185 27.0448 23.6009 27.4803 24.5299 27.6978C25.4589 27.9154 26.4156 27.9105 27.343 27.6835C28.2703 27.4565 29.1495 27.012 29.9282 26.3765L25.9065 19.5317L22.2737 12.3913Z" fill="white" stroke="white" stroke-width="2.4" mask="url(#path-6-inside-1_370_767)"/>
<mask id="path-7-inside-2_370_767" fill="white">
<path d="M30.1985 26.5705C30.9916 25.9701 31.6723 25.1866 32.2003 24.2667C32.7283 23.3467 33.0926 22.3091 33.2718 21.2154C33.4509 20.1217 33.4411 18.9944 33.243 17.9005C33.0449 16.8066 32.6626 15.7684 32.1186 14.8477C31.5747 13.927 30.8804 13.1425 30.0769 12.541C29.2734 11.9395 28.3772 11.5331 27.4415 11.3462C26.5059 11.1593 25.5499 11.1955 24.6305 11.4528C23.7111 11.7101 22.847 12.1831 22.0895 12.8438L26.3335 19.553L30.1985 26.5705Z"/>
</mask>
<path d="M30.1985 26.5705C30.9916 25.9701 31.6723 25.1866 32.2003 24.2667C32.7283 23.3467 33.0926 22.3091 33.2718 21.2154C33.4509 20.1217 33.4411 18.9944 33.243 17.9005C33.0449 16.8066 32.6626 15.7684 32.1186 14.8477C31.5747 13.927 30.8804 13.1425 30.0769 12.541C29.2734 11.9395 28.3772 11.5331 27.4415 11.3462C26.5059 11.1593 25.5499 11.1955 24.6305 11.4528C23.7111 11.7101 22.847 12.1831 22.0895 12.8438L26.3335 19.553L30.1985 26.5705Z" fill="black" stroke="black" stroke-width="2.4" mask="url(#path-7-inside-2_370_767)"/>
<mask id="path-8-inside-3_370_767" fill="white">
<path d="M12.8128 26.5705C13.6059 25.9701 14.2866 25.1866 14.8146 24.2667C15.3425 23.3467 15.7069 22.3091 15.886 21.2154C16.0652 20.1217 16.0554 18.9944 15.8573 17.9005C15.6592 16.8066 15.2768 15.7684 14.7329 14.8477C14.189 13.927 13.4946 13.1425 12.6911 12.541C11.8877 11.9395 10.9914 11.5331 10.0558 11.3462C9.12016 11.1593 8.1642 11.1955 7.24477 11.4528C6.32533 11.7101 5.46121 12.1831 4.70378 12.8438L8.94779 19.553L12.8128 26.5705Z"/>
</mask>
<path d="M12.8128 26.5705C13.6059 25.9701 14.2866 25.1866 14.8146 24.2667C15.3425 23.3467 15.7069 22.3091 15.886 21.2154C16.0652 20.1217 16.0554 18.9944 15.8573 17.9005C15.6592 16.8066 15.2768 15.7684 14.7329 14.8477C14.189 13.927 13.4946 13.1425 12.6911 12.541C11.8877 11.9395 10.9914 11.5331 10.0558 11.3462C9.12016 11.1593 8.1642 11.1955 7.24477 11.4528C6.32533 11.7101 5.46121 12.1831 4.70378 12.8438L8.94779 19.553L12.8128 26.5705Z" fill="black" stroke="black" stroke-width="2.4" mask="url(#path-8-inside-3_370_767)"/>
<mask id="path-9-inside-4_370_767" fill="white">
<path d="M5.11772 12.3913C4.30539 12.9654 3.59931 13.7261 3.04147 14.6282C2.48362 15.5304 2.08541 16.5555 1.87051 17.6427C1.65561 18.7299 1.62841 19.8569 1.79053 20.9568C1.95264 22.0566 2.30077 23.1068 2.8142 24.0448C3.32763 24.9829 3.99587 25.7897 4.7792 26.4173C5.56252 27.0448 6.44493 27.4803 7.37394 27.6978C8.30294 27.9154 9.25958 27.9105 10.187 27.6835C11.1143 27.4565 11.9935 27.012 12.7722 26.3765L8.7505 19.5317L5.11772 12.3913Z"/>
</mask>
<path d="M5.11772 12.3913C4.30539 12.9654 3.59931 13.7261 3.04147 14.6282C2.48362 15.5304 2.08541 16.5555 1.87051 17.6427C1.65561 18.7299 1.62841 19.8569 1.79053 20.9568C1.95264 22.0566 2.30077 23.1068 2.8142 24.0448C3.32763 24.9829 3.99587 25.7897 4.7792 26.4173C5.56252 27.0448 6.44493 27.4803 7.37394 27.6978C8.30294 27.9154 9.25958 27.9105 10.187 27.6835C11.1143 27.4565 11.9935 27.012 12.7722 26.3765L8.7505 19.5317L5.11772 12.3913Z" fill="white" stroke="white" stroke-width="2.4" mask="url(#path-9-inside-4_370_767)"/>
<path d="M26.0352 11.8018C29.8772 11.8018 33.0859 15.2402 33.0859 19.6016C33.0858 23.9629 29.8771 27.4004 26.0352 27.4004C22.1934 27.4001 18.9854 23.9627 18.9854 19.6016C18.9854 15.2404 22.1934 11.802 26.0352 11.8018Z" stroke="black" stroke-width="1.2"/>
<path d="M8.64941 11.8018C12.4914 11.8018 15.7002 15.2402 15.7002 19.6016C15.7001 23.9629 12.4914 27.4004 8.64941 27.4004C4.80767 27.4001 1.5997 23.9627 1.59961 19.6016C1.59961 15.2404 4.80761 11.802 8.64941 11.8018Z" stroke="black" stroke-width="1.2"/>
<line y1="-0.5" x2="15.6806" y2="-0.5" transform="matrix(0.503594 0.863941 -0.818197 0.574938 21.8406 13.3696)" stroke="black"/>
<circle cx="12.2826" cy="15.7472" r="1.51376" fill="white"/>
<circle cx="29.4386" cy="15.7472" r="1.51376" fill="white"/>
<circle cx="28.6817" cy="18.523" r="0.756881" fill="white"/>
<circle cx="11.5257" cy="18.523" r="0.756881" fill="white"/>
</svg>
