<svg width="50" height="44" viewBox="0 0 50 44" fill="none" xmlns="http://www.w3.org/2000/svg">
<mask id="path-1-inside-1_370_768" fill="white">
<path d="M30.2737 9.3913C29.4614 9.96536 28.7553 10.7261 28.1975 11.6282C27.6396 12.5304 27.2414 13.5555 27.0265 14.6427C26.8116 15.7299 26.7844 16.8569 26.9465 17.9568C27.1086 19.0566 27.4568 20.1068 27.9702 21.0448C28.4836 21.9829 29.1519 22.7897 29.9352 23.4173C30.7185 24.0448 31.6009 24.4803 32.5299 24.6978C33.4589 24.9154 34.4156 24.9105 35.343 24.6835C36.2703 24.4565 37.1495 24.012 37.9282 23.3765L33.9065 16.5317L30.2737 9.3913Z"/>
</mask>
<path d="M30.2737 9.3913C29.4614 9.96536 28.7553 10.7261 28.1975 11.6282C27.6396 12.5304 27.2414 13.5555 27.0265 14.6427C26.8116 15.7299 26.7844 16.8569 26.9465 17.9568C27.1086 19.0566 27.4568 20.1068 27.9702 21.0448C28.4836 21.9829 29.1519 22.7897 29.9352 23.4173C30.7185 24.0448 31.6009 24.4803 32.5299 24.6978C33.4589 24.9154 34.4156 24.9105 35.343 24.6835C36.2703 24.4565 37.1495 24.012 37.9282 23.3765L33.9065 16.5317L30.2737 9.3913Z" fill="white" stroke="white" stroke-width="2.4" mask="url(#path-1-inside-1_370_768)"/>
<mask id="path-2-inside-2_370_768" fill="white">
<path d="M38.1984 23.5705C38.9915 22.9701 39.6722 22.1866 40.2002 21.2667C40.7281 20.3467 41.0925 19.3091 41.2716 18.2154C41.4508 17.1217 41.441 15.9944 41.2429 14.9005C41.0448 13.8066 40.6624 12.7684 40.1185 11.8477C39.5746 10.927 38.8802 10.1425 38.0768 9.54099C37.2733 8.93946 36.3771 8.53314 35.4414 8.3462C34.5058 8.15926 33.5498 8.1955 32.6304 8.45279C31.711 8.71007 30.8468 9.18313 30.0894 9.84385L34.3334 16.553L38.1984 23.5705Z"/>
</mask>
<path d="M38.1984 23.5705C38.9915 22.9701 39.6722 22.1866 40.2002 21.2667C40.7281 20.3467 41.0925 19.3091 41.2716 18.2154C41.4508 17.1217 41.441 15.9944 41.2429 14.9005C41.0448 13.8066 40.6624 12.7684 40.1185 11.8477C39.5746 10.927 38.8802 10.1425 38.0768 9.54099C37.2733 8.93946 36.3771 8.53314 35.4414 8.3462C34.5058 8.15926 33.5498 8.1955 32.6304 8.45279C31.711 8.71007 30.8468 9.18313 30.0894 9.84385L34.3334 16.553L38.1984 23.5705Z" fill="black" stroke="black" stroke-width="2.4" mask="url(#path-2-inside-2_370_768)"/>
<mask id="path-3-inside-3_370_768" fill="white">
<path d="M20.8127 23.5705C21.6057 22.9701 22.2865 22.1866 22.8144 21.2667C23.3424 20.3467 23.7068 19.3091 23.8859 18.2154C24.065 17.1217 24.0553 15.9944 23.8572 14.9005C23.6591 13.8066 23.2767 12.7684 22.7328 11.8477C22.1889 10.927 21.4945 10.1425 20.691 9.54099C19.8875 8.93946 18.9913 8.53314 18.0557 8.3462C17.12 8.15926 16.1641 8.1955 15.2446 8.45279C14.3252 8.71007 13.4611 9.18313 12.7037 9.84385L16.9477 16.553L20.8127 23.5705Z"/>
</mask>
<path d="M20.8127 23.5705C21.6057 22.9701 22.2865 22.1866 22.8144 21.2667C23.3424 20.3467 23.7068 19.3091 23.8859 18.2154C24.065 17.1217 24.0553 15.9944 23.8572 14.9005C23.6591 13.8066 23.2767 12.7684 22.7328 11.8477C22.1889 10.927 21.4945 10.1425 20.691 9.54099C19.8875 8.93946 18.9913 8.53314 18.0557 8.3462C17.12 8.15926 16.1641 8.1955 15.2446 8.45279C14.3252 8.71007 13.4611 9.18313 12.7037 9.84385L16.9477 16.553L20.8127 23.5705Z" fill="black" stroke="black" stroke-width="2.4" mask="url(#path-3-inside-3_370_768)"/>
<mask id="path-4-inside-4_370_768" fill="white">
<path d="M13.1177 9.3913C12.3054 9.96536 11.5993 10.7261 11.0415 11.6282C10.4836 12.5304 10.0854 13.5555 9.87051 14.6427C9.65561 15.7299 9.62841 16.8569 9.79053 17.9568C9.95264 19.0566 10.3008 20.1068 10.8142 21.0448C11.3276 21.9829 11.9959 22.7897 12.7792 23.4173C13.5625 24.0448 14.4449 24.4803 15.3739 24.6978C16.3029 24.9154 17.2596 24.9105 18.187 24.6835C19.1143 24.4565 19.9935 24.012 20.7722 23.3765L16.7505 16.5317L13.1177 9.3913Z"/>
</mask>
<path d="M13.1177 9.3913C12.3054 9.96536 11.5993 10.7261 11.0415 11.6282C10.4836 12.5304 10.0854 13.5555 9.87051 14.6427C9.65561 15.7299 9.62841 16.8569 9.79053 17.9568C9.95264 19.0566 10.3008 20.1068 10.8142 21.0448C11.3276 21.9829 11.9959 22.7897 12.7792 23.4173C13.5625 24.0448 14.4449 24.4803 15.3739 24.6978C16.3029 24.9154 17.2596 24.9105 18.187 24.6835C19.1143 24.4565 19.9935 24.012 20.7722 23.3765L16.7505 16.5317L13.1177 9.3913Z" fill="white" stroke="white" stroke-width="2.4" mask="url(#path-4-inside-4_370_768)"/>
<path d="M34.0352 8.80176C37.8772 8.80176 41.0859 12.2402 41.0859 16.6016C41.0858 20.9629 37.8771 24.4004 34.0352 24.4004C30.1934 24.4001 26.9854 20.9627 26.9854 16.6016C26.9854 12.2404 30.1934 8.80205 34.0352 8.80176Z" stroke="black" stroke-width="1.2"/>
<path d="M16.6494 8.80176C20.4914 8.80176 23.7002 12.2402 23.7002 16.6016C23.7001 20.9629 20.4914 24.4004 16.6494 24.4004C12.8077 24.4001 9.5997 20.9627 9.59961 16.6016C9.59961 12.2404 12.8076 8.80205 16.6494 8.80176Z" stroke="black" stroke-width="1.2"/>
<circle cx="20.2826" cy="12.7472" r="1.51376" fill="white"/>
<circle cx="37.4386" cy="12.7472" r="1.51376" fill="white"/>
<circle cx="36.6817" cy="15.523" r="0.756881" fill="white"/>
<circle cx="19.5257" cy="15.523" r="0.756881" fill="white"/>
<path d="M29.3685 28.061C28.7891 27.617 30.3708 26.2008 30.739 25.898C31.6416 25.053 32.8032 24.7067 33.9476 24.4487C35.2069 24.1273 36.549 24.2906 37.7922 24.4522C39.104 24.644 40.4932 24.9032 41.6039 25.6634C41.8383 25.8666 42.3145 26.0813 42.0642 26.4768C41.679 26.9364 41.2799 26.2556 40.9338 26.0933C39.6204 25.4331 38.1403 25.2119 36.6889 25.0694C35.739 24.9484 34.7628 24.9756 33.8228 25.2314C33.0046 25.4394 32.2189 25.6329 31.5411 26.173C31.0671 26.5347 30.6127 26.9246 30.2337 27.3943C29.9924 27.6695 29.818 28.3422 29.3698 28.0641L29.3685 28.061Z" fill="black"/>
<path d="M38.8182 32.2852C38.1487 31.4154 38.6404 30.1697 39.3488 29.3792C39.6687 28.9675 40.2087 29.4318 39.8932 29.8513C39.4533 30.3895 38.9405 31.1598 39.4149 31.7568C39.9686 31.5292 40.1974 30.7787 40.4754 30.2784C41.0874 29.1496 41.8549 30.6399 42.3844 30.9794C42.6155 30.6521 42.7909 30.28 42.9412 29.9058C43.0131 29.5266 43.4671 29.367 43.6862 29.6385C43.9965 30.0877 44.4001 30.4837 44.8455 30.7543C45.1797 30.9764 45.2882 30.7217 45.3418 30.3668C45.4017 29.9736 45.2464 29.6273 45.1879 29.2616C45.1763 28.9311 45.5326 28.6203 45.8001 28.7927C46.3435 29.0826 46.8036 29.6646 47.4006 29.802C47.3832 29.8002 47.368 29.7994 47.3528 29.7987C47.8886 29.6835 48.2044 28.9358 47.9842 28.4409C47.611 27.6359 46.7379 27.3399 46.0792 26.8678C45.9144 26.7636 45.8706 26.5187 45.9817 26.3297C46.2795 25.8732 46.6835 26.328 46.9748 26.4815C47.4814 26.8081 48.0347 27.1053 48.4019 27.6145C49.1596 28.5081 48.7063 30.2016 47.5265 30.5548C46.9583 30.7144 46.5054 30.2529 46.073 29.9704C46.1287 30.6163 45.8278 31.526 45.1342 31.628C44.4228 31.6577 43.895 31.0521 43.4258 30.5864C42.534 32.4932 42.0584 31.8576 41.0308 30.7612C40.6644 31.6188 39.6966 33.1641 38.8182 32.2793L38.8182 32.2852Z" fill="black"/>
<path d="M9.93906 32.5685C10.7189 31.7961 10.3983 30.4958 9.80204 29.6176C9.54015 29.1668 8.94287 29.5547 9.19937 30.0126C9.56336 30.6048 9.96838 31.4368 9.41843 31.965C8.90017 31.6654 8.77383 30.891 8.56524 30.3579C8.1098 29.1575 7.14983 30.5316 6.57962 30.7972C6.3944 30.442 6.27042 30.0497 6.17152 29.6587C6.15095 29.2734 5.72242 29.0544 5.46899 29.2942C5.10134 29.6978 4.64837 30.0363 4.17078 30.2448C3.80993 30.4202 3.73646 30.1533 3.73083 29.7944C3.72407 29.3968 3.92428 29.0743 4.03123 28.7198C4.08691 28.3937 3.7754 28.0381 3.48723 28.1732C2.90992 28.3878 2.37607 28.9029 1.76606 28.9592C1.78356 28.9598 1.79875 28.9611 1.81396 28.9623C1.29838 28.7765 1.08538 27.9932 1.36989 27.5323C1.84742 26.7844 2.7523 26.608 3.46819 26.2282C3.64551 26.147 3.72164 25.9102 3.63687 25.708C3.40277 25.2157 2.94162 25.6124 2.63236 25.7256C2.08659 25.9815 1.49856 26.2019 1.0665 26.6574C0.195997 27.4416 0.418677 29.1805 1.54056 29.6884C2.0823 29.9226 2.59291 29.5258 3.05921 29.3037C2.91759 29.9364 3.09402 30.8782 3.76778 31.0721C4.46885 31.1967 5.07285 30.6672 5.60023 30.2684C6.22885 32.2774 6.78524 31.7111 7.95029 30.7621C8.19867 31.661 8.95093 33.3219 9.93988 32.5627L9.93906 32.5685Z" fill="black"/>
<path d="M9.54887 5.20901C9.25501 4.76397 9.89468 4.48548 10.1854 4.25936C11.0441 3.70195 11.95 3.20761 12.9145 2.92205C13.962 2.58189 15.0607 2.40874 16.1296 2.53402C16.5122 2.57529 16.8829 2.67423 17.2484 2.78789C17.4695 2.81857 17.6615 2.99965 17.5951 3.2553C17.4559 3.72822 17.0018 3.51777 16.6977 3.42531C14.8493 2.93621 12.849 3.54492 11.1519 4.5105C10.7994 4.72107 10.4505 4.9452 10.1228 5.19521C9.95038 5.35641 9.68646 5.39597 9.54798 5.20562L9.54887 5.20901Z" fill="black"/>
<path d="M10.0896 6.83217C9.93804 6.68921 9.92386 6.42752 10.0749 6.27767C11.0152 5.2757 12.3361 4.72509 13.6542 4.41819C14.98 4.12435 16.3399 4.22687 17.6393 4.59255C17.9809 4.65672 18.5545 4.50794 18.5918 5.00356C18.5907 5.49347 18.0345 5.42109 17.6909 5.38836C15.6875 4.84477 13.7304 4.89622 11.8679 5.89045C11.5316 6.07139 11.2075 6.27366 10.9274 6.5378C10.7092 6.75813 10.3973 7.12055 10.0873 6.83094L10.0896 6.83217Z" fill="black"/>
<path d="M35.3821 4.50136C34.3819 3.97767 33.5105 3.25852 32.6348 2.54739C32.2791 2.19279 30.8868 1.56617 31.4161 0.901632C31.5788 0.717381 31.8497 0.697325 32.0042 0.855293C33.534 2.14209 35.081 3.55135 36.9796 4.23896C37.5647 4.39342 38.1876 4.37938 38.7943 4.40134C39.0215 4.40594 39.1813 4.62851 39.1497 4.86556C39.037 5.478 38.3548 5.24761 37.9619 5.26091C37.0294 5.26409 36.149 4.98624 35.3821 4.50136Z" fill="black"/>
<path d="M32.9235 5.15903C32.1545 4.69271 31.4456 4.11904 30.8719 3.42507C30.6528 3.05991 29.7295 2.39405 30.189 2.0007C30.3432 1.87661 30.5891 1.89916 30.7142 2.05796C32.2913 4.26651 34.2281 5.44549 36.9713 5.44301C37.4554 5.49228 37.3973 6.22263 36.9075 6.1787C35.5318 6.10524 34.0988 5.94263 32.9213 5.15785L32.9235 5.15903Z" fill="black"/>
<path d="M20.2671 28.5979C20.8756 28.1948 19.3948 26.6733 19.0483 26.3459C18.2059 25.441 17.0708 25.0157 15.9468 24.6798C14.7125 24.2727 13.3625 24.3434 12.1111 24.4193C10.7892 24.5205 9.38546 24.6837 8.22518 25.3658C7.9774 25.5525 7.48759 25.734 7.71007 26.1458C8.06286 26.6307 8.50776 25.9788 8.8642 25.8407C10.2198 25.2723 11.7115 25.1532 13.1693 25.1107C14.1253 25.0553 15.0974 25.1494 16.0175 25.4692C16.8196 25.7329 17.5901 25.9799 18.2292 26.5652C18.6772 26.9586 19.1038 27.3788 19.4496 27.8734C19.6716 28.1645 19.7993 28.8476 20.2655 28.6009L20.2671 28.5979Z" fill="black"/>
<path d="M23.139 42.2852C19.7448 41.4464 18.2671 38.1764 17.3906 35.4438C17.1554 34.781 18.2685 34.4619 18.5289 35.1226C19.1958 37.1359 20.0054 39.2214 21.9147 40.5978C23.8296 41.8304 26.6908 41.932 28.3439 40.3638C30.0147 38.8934 30.7561 36.9209 31.1748 34.927C31.2686 34.4824 31.0608 33.7563 31.785 33.7101C32.9646 33.7991 32.2316 35.3931 32.1332 36.0286C31.3618 39.7402 27.9138 43.8653 23.139 42.2852Z" fill="black"/>
</svg>
