<svg width="61" height="35" viewBox="0 0 61 35" fill="none" xmlns="http://www.w3.org/2000/svg">
<path d="M20.737 20.6915C20.8462 20.7004 20.9553 20.7094 20.8567 20.5923C20.7581 20.4752 20.4483 20.2317 20.1117 20.2553C19.7751 20.2789 19.4209 20.5769 19.1572 21.0508C18.8936 21.5247 18.7311 22.1654 18.7388 22.721C18.7465 23.2766 18.9293 23.7277 19.1828 24.0276C19.4363 24.3276 19.7549 24.4627 20.0828 24.5458C20.4107 24.6288 20.7382 24.6557 21.143 24.4709C22.1017 24.0332 22.6423 23.1635 22.8792 22.3059C23.228 21.0429 22.9148 19.8824 22.4149 19.2369C21.856 18.515 20.3829 18.35 18.7734 18.3815C17.4088 18.4082 16.4116 19.3423 15.6417 19.9382C15.0362 20.4068 14.9883 21.7527 14.9765 23.2366C14.9715 23.8569 15.2274 24.197 15.54 24.4457C15.8527 24.6943 16.2805 24.8384 16.669 24.8719C17.0576 24.9054 17.394 24.824 17.6898 24.6286C18.3064 24.2212 18.7457 23.2865 19.1616 22.2767C19.5192 21.4083 19.0949 20.451 18.5065 19.5241C17.9181 18.5971 17.2987 17.988 16.602 17.7112C15.8076 17.3955 14.8096 17.2321 13.8144 17.205C12.1493 17.1596 10.915 18.6701 10.3294 19.7188C9.99768 20.3129 10.0358 21.2275 10.2633 21.8044C10.4907 22.3814 11.0188 22.6427 11.6183 22.8042C12.2178 22.9657 12.8728 23.0194 13.3873 22.8981C14.3274 22.6765 14.8659 21.8649 15.3183 21.0794C15.9073 20.0569 15.7819 18.8579 15.4654 18.0077C14.7781 16.1619 12.0197 16.1245 9.92099 15.9491C8.17639 15.8032 7.17609 18.251 6.50186 20.3397C6.28162 21.0219 6.31615 21.9134 6.42996 22.5355C6.54378 23.1576 6.84464 23.5094 7.15893 23.7581C7.47323 24.0069 7.79185 24.142 8.14194 23.9544C9.03161 23.4775 9.28268 22.2889 9.24067 21.4612C9.20094 20.6783 8.4731 20.0191 7.85795 19.4186C7.57135 19.1388 7.22503 19.0347 6.8927 19.0057C5.55994 18.8898 4.17286 21.0835 3.31783 22.6155C2.53602 24.0163 2.62202 26.3475 3.22719 28.3891C3.49494 29.2924 4.70882 29.287 5.37767 29.2328C5.72755 29.2045 6.06429 28.9621 6.31006 28.7064C6.55584 28.4507 6.69165 28.1348 6.7248 27.7511C6.75795 27.3673 6.68432 26.9252 6.3779 26.6209C5.69855 25.9463 4.66269 25.8707 3.95715 25.7022C3.5795 25.612 3.12469 25.7412 2.65462 26.0314C2.18454 26.3215 1.70346 26.8271 1.47468 27.5252C1.2459 28.2233 1.284 29.0985 1.32326 30.0003" stroke="black" stroke-width="0.5" stroke-linecap="round"/>
<path d="M25.7991 15.8211C25.9641 16.4887 26.0136 17.2658 25.8874 18.1342C25.7593 19.0158 25.0308 19.828 24.0925 20.4662C23.297 21.0073 22.3944 20.8273 21.4837 20.4801C19.9 19.8763 19.0347 18.464 18.721 17.5595C18.0953 15.756 18.7109 14.2519 19.2073 13.5791C19.5083 13.1713 20.1494 12.8338 20.5447 12.8051C20.94 12.7765 21.1317 13.1192 21.1994 13.6748C21.3582 14.9791 20.5417 16.3743 19.4612 17.3857C18.1186 18.6426 15.8371 18.3074 14.0439 17.7771C13.2624 17.5459 12.739 16.7351 12.2419 16.0353C11.8145 15.4337 11.9403 14.2515 12.2071 13.0082C12.3176 12.4935 12.757 12.3331 13.0308 12.4068C13.3045 12.4804 13.4961 12.8232 13.5727 13.2705C13.7396 14.2459 13.4232 15.1329 13.0404 15.7606C12.5952 16.4903 11.611 16.9663 10.6906 17.3864C9.87438 17.7589 8.81009 17.2915 7.53192 16.6945C5.67986 15.8293 4.72132 14.3167 4.45767 13.4708C4.24271 12.7812 4.56674 12.1006 4.94072 11.5812C5.12341 11.3275 5.51526 11.2964 5.83454 11.4844C6.15381 11.6725 6.44579 12.1325 6.57399 12.6402C6.70219 13.1479 6.65777 13.6893 6.39879 14.1669C5.856 15.1678 4.72666 15.6319 3.82422 15.8337C3.37622 15.8547 2.94844 15.7106 2.52749 15.4019C2.10655 15.0932 1.70541 14.6242 1.31903 13.8129" stroke="black" stroke-width="0.5" stroke-linecap="round"/>
<path d="M30.4033 16.5298C30.1406 17.0533 29.8778 17.5768 29.415 17.8196C28.9521 18.0625 28.2971 18.0087 27.7636 17.6924C26.6549 17.0352 26.3689 15.6538 26.2885 14.6033C26.2173 13.6724 26.7081 12.8175 27.4263 12.1612C27.7467 11.8685 28.1179 11.8298 28.4505 11.8554C28.7831 11.8811 29.1018 12.0162 29.3484 12.4196C29.5951 12.8231 29.7601 13.4907 29.4453 14.0199C29.1304 14.549 28.3307 14.9195 27.7595 15.0427C27.1882 15.166 26.8696 15.0308 26.5639 14.6771C25.8478 13.8483 25.3915 12.7095 24.9846 11.5794C24.4633 10.1313 25.259 8.84349 25.8574 8.28805C26.1737 7.99446 26.6653 7.85881 26.9952 7.93708C27.3252 8.01535 27.5169 8.35811 27.4931 8.68816C27.4694 9.01821 27.2244 9.32516 26.7072 9.56022C25.4737 10.1209 24.1658 10.0719 23.249 9.77865C22.7297 9.61255 22.2586 9.04332 22.0179 8.52641C21.7772 8.0095 21.8217 7.46807 22.0127 7.14845C22.2038 6.82882 22.5402 6.7474 23.2176 6.69066" stroke="black" stroke-width="0.5" stroke-linecap="round"/>
<path d="M35.7814 18.0908C35.0725 17.7913 33.4296 16.9253 31.8698 17.1575C31.0585 17.2782 30.8121 18.7726 30.8122 20.2315C30.8123 21.0018 31.5373 21.7498 32.241 22.1804C32.9447 22.6111 33.7905 22.6805 34.5577 22.3814C36.1699 21.7531 36.8708 19.7742 37.1273 18.1518C37.2329 17.4841 37.0931 17.1088 36.7637 16.654C36.4342 16.1992 35.8694 15.6703 35.1359 15.6028C34.4024 15.5353 33.5173 15.9453 33.1527 16.526C32.7881 17.1067 32.9707 17.8456 33.1709 18.4159C33.5136 19.3924 34.4973 20.1755 35.7371 20.7653C36.2521 21.0102 36.6538 20.846 37.1119 20.5197C39.2712 18.9818 39.8227 16.7258 40.0486 13.2747C40.1021 12.4583 39.6095 11.9553 39.2014 11.6732C38.7933 11.3911 38.31 11.3515 37.8749 11.3761C37.4397 11.4007 37.0674 11.4909 36.7759 12.0117C36.4844 12.5326 36.2849 13.4814 36.2882 14.1599C36.2915 14.8384 36.5037 15.2178 36.7893 15.488C37.3435 16.0123 38.395 16.1115 39.5618 16.0865C40.6629 16.063 41.6781 15.0463 42.5045 13.9587C43.1477 13.1123 42.8066 11.8483 42.4107 10.7208C42.2085 10.1448 41.5119 9.79337 40.8991 9.73761C40.2862 9.68186 39.6526 9.99184 39.4225 10.4611C39.1923 10.9303 39.3848 11.5493 39.7059 12.1278C40.0271 12.7062 40.471 13.2252 41.0573 13.5823C41.6436 13.9393 42.3587 14.1186 43.1191 13.8812C43.8794 13.6438 44.6633 12.9841 45.162 12.2298C46.1151 10.7881 45.9544 9.42292 45.6446 8.72843C45.4853 8.37122 45.0833 8.13396 44.7108 8.16006C44.3382 8.18617 43.9462 8.51598 43.785 8.93053C43.6239 9.34508 43.7054 9.83438 44.1506 10.3608C45.4022 11.436 46.7164 12.0411 47.6348 12.0561C48.0699 12.0315 48.4422 11.9414 48.8258 11.8485" stroke="black" stroke-width="0.5" stroke-linecap="round"/>
<path d="M32.0224 14.4911C30.5726 14.3721 29.1227 14.2532 28.2908 14.4866C27.4589 14.72 27.2889 15.3093 27.2926 15.9823C27.2964 16.6554 27.4791 17.3943 27.8148 17.7947C28.1506 18.1952 28.6339 18.2349 29.1294 18.2152C29.6249 18.1955 30.118 18.1153 30.7135 17.6194C32.1747 16.4024 32.8848 14.4485 33.1412 12.8279C33.2653 12.0432 33.1461 11.3073 32.8825 10.7921C32.6188 10.2769 32.1552 9.99755 31.5538 9.82391C30.9525 9.65027 30.2276 9.5908 29.916 10.2892C29.6043 10.9875 29.728 12.4455 30.084 13.3412C30.4399 14.2369 31.0243 14.5262 31.7729 14.4103C32.5214 14.2943 33.4164 13.7645 33.9118 13.0721C34.8629 11.7428 34.3446 10.1772 33.8667 9.28607C33.4396 8.4898 32.3008 8.17775 31.2647 8.09094C30.8167 8.05339 30.5519 8.51325 30.9412 8.91262C31.3304 9.312 32.3884 9.76075 33.1848 9.8919C33.9813 10.023 34.4843 9.823 34.959 9.31535C35.4338 8.8077 35.865 7.9985 36.0514 7.27707C36.2377 6.55564 36.1661 5.94649 35.9023 5.4331C35.6384 4.9197 35.1846 4.52051 34.9965 4.4996C34.8084 4.47868 34.8997 4.84814 35.1934 4.99836C35.487 5.14858 35.9801 5.06838 36.4449 4.68239C36.9096 4.29641 37.3311 3.60706 37.7653 2.89682" stroke="black" stroke-width="0.5" stroke-linecap="round"/>
<path d="M26.4411 15.1301C26.4214 15.3698 25.5852 15.1842 23.9155 14.6213C23.072 14.3674 22.2361 14.1782 21.6439 13.8262C21.0517 13.4741 20.7285 12.965 20.8213 11.7441" stroke="black" stroke-width="0.5" stroke-linecap="round"/>
<path d="M24.7384 17.9159C23.3671 16.8382 22.4977 15.3044 22.3962 13.532C22.3506 12.737 22.7484 12.1588 23.161 12.3644C24.5385 13.0513 24.6924 15.4662 24.5653 17.0371C24.5054 17.7784 23.9747 18.3286 23.4655 18.5373C22.9563 18.7459 22.362 18.5765 21.6316 17.7305C19.7721 15.577 19.247 12.9647 19.5472 11.5287C19.6782 10.9022 20.1706 10.6018 20.6697 10.5166C21.1688 10.4314 21.7631 10.6008 21.9287 10.9179C22.0944 11.2349 21.8134 11.6945 21.427 11.9114C21.0406 12.1284 20.5573 12.0887 19.7077 11.2348C18.8581 10.3808 17.6569 8.71378 17.1181 7.62027C16.5794 6.52675 16.7395 6.05728 17.1648 6.08485C17.5902 6.11243 18.2758 6.65129 18.6044 7.2285C18.933 7.80571 18.8839 8.40494 18.6675 8.81862C18.4511 9.2323 18.0689 9.44226 17.3986 9.39092C16.7283 9.33959 15.7814 9.0206 15.1369 8.54179C14.4924 8.06298 14.1791 7.43401 14.1533 6.94014C14.1275 6.44626 14.3986 6.10655 14.5039 6.351C14.6091 6.59546 14.5403 7.43439 14.0918 7.71203C13.6433 7.98967 12.8172 7.68059 12.3509 7.27672C11.8846 6.87285 11.8031 6.38355 11.7191 5.87942" stroke="black" stroke-width="0.5" stroke-linecap="round"/>
<path d="M42.7087 19.0245C41.8826 18.7154 41.0565 18.4063 40.4953 18.417C39.9342 18.4276 39.6631 18.7673 39.5346 19.5465C39.4062 20.3257 39.4287 21.5341 39.6672 22.3562C39.9057 23.1783 40.3595 23.5775 40.9656 23.693C41.5717 23.8085 42.3163 23.6283 43.0412 23.0808C44.6599 21.8586 45.1918 20.208 45.0898 19.2271C45.0359 18.7092 44.6253 18.2165 44.2825 17.8794C43.9397 17.5423 43.5871 17.3928 43.2193 17.3608C42.8515 17.3288 42.4792 17.4189 42.1469 17.6951C41.8146 17.9713 41.5336 18.4308 41.4753 19.097C41.417 19.7631 41.5898 20.6218 41.9107 21.2039C42.2315 21.7859 42.6951 22.0653 43.491 21.35C44.2869 20.6347 45.4009 18.9163 45.7838 18.136C46.1666 17.3557 45.7845 17.5657 45.5125 17.8487C44.9847 18.3978 45.0069 19.4507 45.3326 20.693C45.6987 22.09 47.0525 22.9127 48.245 23.3158C48.8308 23.5138 49.467 23.3594 50.0495 23.0433C51.2973 22.3664 51.883 21.0019 52.0345 19.9193C52.1029 19.4305 51.8038 19.0467 51.5182 18.7764C51.2326 18.5062 50.88 18.3566 50.5627 18.4494C50.2455 18.5422 49.9744 18.882 49.8803 19.2417C49.6959 19.9473 50.2752 21.1003 51.0273 22.3795C51.3788 22.9775 52.0603 23.1992 52.7435 23.1382C54.191 22.6573 55.1288 21.8751 55.7499 21.7396C56.2207 21.9537 57.0075 22.7421 58.5504 23.6146" stroke="black" stroke-width="0.5" stroke-linecap="round"/>
<path d="M32.3677 19.2728C29.7292 18.8151 27.9977 18.6694 27.3992 19.2254C26.4157 20.1391 27.105 22.0037 27.3849 23.0614C27.5114 23.5389 27.9361 23.7793 28.6009 23.8978C29.2657 24.0163 30.2421 23.9758 30.8905 23.6652C31.5389 23.3546 31.8297 22.7752 31.7674 22.0973C31.7051 21.4195 31.2807 20.6608 30.876 20.315C30.4713 19.9692 30.099 20.0593 29.7372 20.695C29.3754 21.3308 29.0355 22.5094 28.9566 23.4261C28.8777 24.3428 29.0702 24.9619 29.8746 25.58C30.6791 26.198 32.0896 26.7964 33.1429 26.8297C34.1962 26.8631 34.8495 26.3135 35.0294 25.7158C35.2092 25.1182 34.8959 24.4892 34.4226 24.2602C33.9493 24.0313 33.3256 24.2214 32.9796 24.619C32.6337 25.0166 32.5846 25.6158 32.6604 26.1741C32.7362 26.7324 32.9385 27.2316 33.2746 27.6284C33.6106 28.0253 34.0743 28.3046 34.6152 28.4733C35.1561 28.642 35.7602 28.6916 36.2723 28.4923C37.3188 28.085 37.7505 27.0304 37.8019 26.4259C37.8251 26.1539 37.3504 26.0214 37.0788 26.2989C36.8073 26.5764 36.6275 27.2856 36.6311 27.9605C36.6347 28.6353 36.8272 29.2544 37.279 29.7229C37.7308 30.1914 38.4361 30.4905 39.0558 30.4847C39.6755 30.4789 40.1883 30.159 41.5085 29.1631" stroke="black" stroke-width="0.5" stroke-linecap="round"/>
</svg>
