<svg width="66" height="45" viewBox="0 0 66 45" fill="none" xmlns="http://www.w3.org/2000/svg">
<path d="M31.6445 12.0508C31.2753 11.4733 31.0316 9.72301 30.234 8.41033C29.4852 7.17768 27.4686 6.60757 25.6889 6.364C21.9616 5.85385 18.7365 7.86192 16.3901 9.12939C14.9755 9.89349 14.2984 11.4616 13.1871 12.872C10.6991 16.0295 8.13979 22.0564 7.03397 24.5841C5.63924 27.7721 5.4297 31.7761 5.06232 35.6544C4.93863 37.8757 4.81679 41.8225 4.81494 44.0001" stroke="black" stroke-width="0.5" stroke-linecap="round"/>
<path d="M32.7531 11.4664C32.2621 10.8859 31.5273 9.52949 30.5415 7.53567C30.1605 6.76504 29.312 6.31487 28.1471 5.9269C26.666 5.43363 24.7631 5.34056 23.0426 5.3887C20.4874 5.46018 16.655 8.3364 11.9271 12.5035C9.42909 14.7052 7.56477 17.6331 5.94943 20.8521C4.33408 24.0711 3.23749 27.6329 2.48981 31.0079C1.74214 34.383 1.37661 37.4634 1.1883 38.8578C1 40.2522 1 39.8671 1 39.4704" stroke="black" stroke-width="0.5" stroke-linecap="round"/>
<path d="M31.6453 11.1748C29.19 9.33123 26.2473 8.35692 24.2055 8.35401C22.2221 8.35117 20.9452 10.0022 19.4665 10.9283C16.6374 12.7002 13.6863 17.5749 11.8993 20.4482C11.2807 21.4427 10.6144 23.0065 9.68948 26.0621C7.40903 33.5962 6.53817 38.6887 6.47725 39.4646C6.41632 39.8555 6.29448 40.2406 6.23171 40.7277C6.16895 41.2149 6.16895 41.7925 6.16895 41.8041" stroke="black" stroke-width="0.5" stroke-linecap="round"/>
<path d="M32.0146 11.759C33.366 9.42827 35.3229 7.68678 39.017 6.36534C40.7306 5.75234 42.5892 5.92486 44.6199 6.40764C46.7649 6.91759 48.7441 8.44522 51.4985 11.9224C53.5774 14.5468 56.3242 19.2501 58.0744 22.208C59.8245 25.1659 60.3118 26.3211 60.9894 29.4671C61.6669 32.6132 62.5198 37.7152 62.9592 40.1991C63.3985 42.683 63.3985 42.3942 63.3985 42.0966" stroke="black" stroke-width="0.5" stroke-linecap="round"/>
<path d="M33.1223 12.6332C33.366 11.6705 33.7352 10.7896 34.47 9.9655C35.4423 8.87499 37.2982 8.35673 39.0169 8.06502C41.9162 7.57296 43.9405 8.93431 45.7313 10.1959C47.0238 11.1066 47.762 13.2049 49.1115 16.5916C51.2576 21.9777 52.4363 26.7197 53.7895 28.7602C55.3901 31.6759 57.6091 36.3432 58.595 40.8151C58.8423 41.7981 59.086 42.3757 59.7063 42.9708" stroke="black" stroke-width="0.5" stroke-linecap="round"/>
<path d="M31.6455 10.3003C32.1366 7.09438 33.115 5.54541 34.6547 4.46901C36.4767 3.19519 41.3413 3.59097 44.0071 3.97748C47.81 4.52887 51.1995 8.73086 54.2179 14.1129C56.9998 19.0732 57.24 23.7071 58.2831 26.7088C58.8387 28.5553 59.448 31.0582 59.7009 32.7807C59.9538 34.5033 59.8319 35.3696 59.7064 36.2623" stroke="black" stroke-width="0.5" stroke-linecap="round"/>
<path d="M32.3841 13.217C32.1404 12.6394 31.6493 11.8606 30.7299 10.9869C29.7407 10.0469 27.8389 10.0082 25.9374 10.2489C20.9621 10.8786 17.0244 16.6825 15.0952 19.8709C14.1204 21.4819 13.1919 25.247 12.4479 30.1696C12.2024 31.2971 12.0768 31.9797 11.955 32.9481C11.8331 33.5315 11.5895 34.3016 11.3384 35.0951" stroke="black" stroke-width="0.5" stroke-linecap="round"/>
<path d="M31.2762 10.5918C31.0325 8.66657 30.907 7.00092 31.0288 5.69115C31.1446 4.44711 33.4731 2.91993 36.5469 1.46139C38.2259 0.664651 39.6391 1.06175 41.476 1.44826C44.5755 2.10046 48.1201 4.35221 51.0702 7.31305C55.2125 11.4704 57.9636 16.6944 60.0091 19.626C60.3974 20.1826 60.5629 20.79 61.1758 23.5904C61.7888 26.3907 62.7635 31.3965 63.2656 34.3602C63.8896 39.3688 64.137 40.9236 64.4435 42.6243C64.5062 43.0648 64.5062 43.4498 64.8755 43.2631" stroke="black" stroke-width="0.5" stroke-linecap="round"/>
<path d="M33.8608 10.3001C33.2479 9.33451 32.2657 7.38882 31.1599 5.93174C29.8716 4.23415 27.9569 3.39825 27.2203 3.05842C25.3788 2.20879 21.4475 3.10071 17.6907 4.79845C14.1987 6.37649 12.217 9.59996 10.4816 12.9094C9.62503 16.4784 8.8792 19.4334 8.38813 21.4652C8.14075 22.8231 7.89707 24.8446 7.646 26.9274" stroke="black" stroke-width="0.5" stroke-linecap="round"/>
<path d="M34.2302 11.7591C35.0868 11.0824 37.0511 9.91554 38.7163 9.13668C39.1446 8.93632 39.6356 8.74871 40.1913 8.6014C40.747 8.45409 41.3562 8.35782 42.9494 8.93395C44.5426 9.51007 47.1013 10.7615 49.7597 13.7646C52.4181 16.7678 55.0987 21.4847 56.5405 24.3478C58.1041 28.0773 58.3515 29.2587 58.5361 29.9369C58.5989 30.3263 58.5989 30.8077 58.5989 31.3036" stroke="black" stroke-width="0.5" stroke-linecap="round"/>
</svg>
