<svg width="73" height="35" viewBox="0 0 73 35" fill="none" xmlns="http://www.w3.org/2000/svg">
<path d="M36.7907 14.5871C37.2354 13.9851 36.8058 12.511 36.0316 10.5454C35.3366 8.78063 33.7285 8.04469 32.6818 7.60784C29.9377 6.4626 26.3665 7.26981 23.4048 8.6877C20.2174 10.2137 19.2082 12.7016 18.3441 14.0406C17.5345 15.2953 16.4265 17.1186 15.5042 19.4149C14.0665 22.9942 11.3027 26.6329 9.44762 27.5929C8.83913 27.7705 8.00014 27.9308 6.56475 27.9523C5.12935 27.9738 3.12296 27.8516 1.05577 27.7258" stroke="black" stroke-width="0.5" stroke-linecap="round"/>
<path d="M36.3565 13.394C36.8219 11.6345 38.4225 8.64719 40.3514 6.53615C41.8071 4.94287 44.4883 5.29042 45.4859 5.5285C49.3399 6.44825 51.4361 12.7499 53.3325 15.9089C54.7251 18.2287 56.9987 19.4229 59.5865 22.0239C61.3002 23.3893 62.5739 24.0652 63.5143 24.2425C64.1085 24.2804 64.9403 24.2128 66.1759 23.808" stroke="black" stroke-width="0.5" stroke-linecap="round"/>
<path d="M38.0982 14.2166C38.9484 11.9037 39.6435 10.3732 40.2205 9.69359C40.8462 8.95648 42.1476 8.37602 43.8863 8.18092C47.5726 7.76731 48.3309 12.7974 50.7813 17.5379C51.9652 19.8281 53.4602 20.7624 54.3826 21.236C58.0892 21.055 61.4216 19.4593 62.2106 19.21C62.6391 19.0569 63.1247 18.85 63.6249 18.6369" stroke="black" stroke-width="0.5" stroke-linecap="round"/>
<path d="M40.2395 14.3474C41.7086 11.6961 44.698 9.49554 49.5653 7.99332C51.293 7.4601 52.5534 8.16807 53.4668 8.81842C56.0866 10.6837 57.1452 17.0176 58.1994 20.3868C59.2822 23.8476 60.3132 25.8305 61.6731 28.0039C65.0276 30.7823 67.3758 31.4053 68.9874 31.3852C69.6568 31.3077 70.0245 31.0937 70.782 30.5379" stroke="black" stroke-width="0.5" stroke-linecap="round"/>
<path d="M36.7382 13.0126C36.7612 12.6346 36.688 12.2451 36.2813 11.7433C35.6242 10.9328 34.545 10.5169 33.6297 10.3653C30.2266 9.80201 27.78 10.8043 26.2136 11.6323C24.8155 12.3715 24.344 14.1642 23.4961 16.0869C21.7258 20.1013 18.2894 22.162 16.2626 23.2254C14.9165 23.9317 13.4573 24.3009 11.6747 24.7039C10.9856 24.7903 10.013 24.8575 9.27065 24.8775C8.52835 24.8974 8.04587 24.868 7.8528 24.6647" stroke="black" stroke-width="0.5" stroke-linecap="round"/>
<path d="M36.9837 14.8654C35.6027 14.0684 34.2364 13.0286 31.5667 12.8034C29.5563 12.6338 28.1035 13.7229 26.2535 14.6851C24.0079 15.8531 22.2308 20.0293 20.4422 22.8081C19.1525 24.8118 17.3048 26.3216 15.7991 27.4839C14.4093 28.5568 11.3836 29.6586 8.17159 30.2476C7.50932 30.2682 6.92034 30.2324 6.25997 30.2513C5.59959 30.2702 4.88565 30.345 4.15008 30.422" stroke="black" stroke-width="0.5" stroke-linecap="round"/>
<path d="M35.352 9.69216C34.0512 9.03912 32.7624 8.1907 30.2583 7.98779C28.3728 7.83499 27.0199 8.70044 25.2938 9.46047C23.1985 10.3831 21.5666 13.7321 19.9126 15.9557C18.72 17.559 17.0004 18.7602 15.5986 19.6841C14.3046 20.537 11.4777 21.3999 8.47201 21.8485C7.85147 21.8597 7.29917 21.8261 6.68039 21.836C6.06161 21.8459 5.39308 21.9004 4.70429 21.9565" stroke="black" stroke-width="0.5" stroke-linecap="round"/>
<path d="M36.5794 9.50515C36.256 7.65884 36.8127 5.56444 38.134 3.70894C38.6669 2.96053 39.1828 2.75016 39.852 2.60408C41.3571 2.27554 43.0553 2.42686 44.5754 2.70206C48.0151 3.32482 49.0792 6.56861 49.8302 7.81686C50.4552 8.85565 50.2885 10.2401 50.3371 12.1804C50.3773 13.7834 50.9731 15.2635 52.3756 17.4703C53.2193 18.7978 54.2052 19.9825 56.434 22.1455C59.5489 24.1798 63.614 26.2788 66.5175 27.2844C67.3876 27.5242 68.2505 27.6681 69.8141 27.5806" stroke="black" stroke-width="0.5" stroke-linecap="round"/>
<path d="M38.7248 15.6883C39.3678 14.8962 40.8897 13.3193 42.7753 12.7713C43.4065 12.5879 44.3746 12.8078 45.0224 13.0837C47.3901 14.092 48.3123 16.9814 50.4313 18.427C51.5982 19.2231 53.09 18.9525 54.1807 18.6624C54.6752 18.4543 55.0501 18.1224 56.1625 17.4163C57.275 16.7101 59.1136 15.6398 61.3866 14.2017" stroke="black" stroke-width="0.5" stroke-linecap="round"/>
<path d="M38.0329 15.288C37.9583 14.5705 37.349 12.8674 35.9994 11.5259C35.112 10.6439 33.9249 10.2621 32.8685 10.0187C31.5951 9.72522 30.1128 10.1447 28.8808 10.7844C27.1421 11.6873 26.5401 13.8646 25.7927 15.3131C24.8733 17.0949 21.4599 19.1588 18.1044 20.1045C15.4361 19.7665 13.113 18.6721 11.4043 17.3141C10.9443 16.9851 10.4874 16.7209 9.34631 15.6912" stroke="black" stroke-width="0.5" stroke-linecap="round"/>
<path d="M38.1108 14.0083C37.5771 12.8796 35.7114 8.59344 34.7802 6.31084C34.28 5.08472 33.2321 4.2658 32.1336 3.64453C30.6838 2.82463 28.4742 2.58391 26.3429 2.66049C23.4516 2.76437 22.103 4.68871 20.4434 6.94905C19.1897 8.65658 18.8077 11.2909 16.6481 13.181C15.6364 13.6071 14.1026 14.064 12.9332 14.345C11.7637 14.6261 11.0052 14.7174 9.31426 14.7562" stroke="black" stroke-width="0.5" stroke-linecap="round"/>
</svg>
