<svg width="144" height="30" viewBox="0 0 144 30" fill="none" xmlns="http://www.w3.org/2000/svg">
<path d="M48.0653 15.0774C48.0653 19.3081 45.321 20.9235 42.8511 20.9235C40.9692 20.9235 40.8908 20.6928 40.8908 19.1543V11.0774C40.8908 9.30814 40.8516 9.03891 42.5766 9.03891C45.2034 9.03891 48.0653 11.0774 48.0653 15.0774ZM88.5641 15.0774C88.5641 19.3081 85.7806 20.9235 83.3106 20.9235C81.4288 20.9235 81.3896 20.6928 81.3896 19.1543V11.0774C81.3896 9.30814 81.3504 9.03891 83.0362 9.03891C85.663 9.03891 88.5641 11.0774 88.5641 15.0774ZM12.1143 16.6158V15.962C10.8206 15.962 8.27226 15.9235 7.0569 15.8081V16.6158H9.13477C9.44841 16.6158 9.68364 16.8466 9.68364 17.2697V19.6158C9.68364 20.5774 9.05636 21.1928 7.44895 21.1928C4.6654 21.1928 1.96025 19.5005 1.96025 14.9235C1.96025 11.9235 3.60686 8.88507 6.82167 8.88507C9.25238 8.88507 9.95807 9.92353 10.5854 11.8851H11.1342V10.9235C11.1342 10.5005 11.095 9.38507 10.9382 8.8466C9.76205 8.46199 8.70351 8.1543 6.93929 8.1543C2.94038 8.1543 0 11.2312 0 15.2697C0 18.6158 1.84264 21.962 6.66485 21.962C8.70351 21.962 10.1933 21.462 11.095 21.1158C11.095 19.7697 11.095 17.962 11.3302 16.6158H12.1143ZM25.0912 8.73122V8.3466H20.4258V8.73122C21.4059 8.92353 22.2684 9.11583 21.602 10.3081L19.2105 14.462L17.015 10.6928C16.0741 9.07737 16.3093 8.92353 17.6031 8.76968V8.38507H12.7024V8.76968C13.7218 8.96199 14.4666 9.57737 15.2115 10.9235L17.9167 15.462V19.1928C17.9167 21.0389 17.407 21.1158 16.1525 21.3081V21.6928H21.4451V21.3081C20.1122 21.1158 19.6417 21.0005 19.6417 19.1928V15.2697L22.5037 10.2697C23.2878 8.8466 24.1503 8.8466 25.0912 8.73122ZM36.3038 18.1928L35.9118 18.0389C35.2845 19.8851 34.1476 20.9235 31.9129 20.9235C30.031 20.9235 29.7174 20.8466 29.7174 18.962V10.6543C29.7174 8.80814 30.3839 8.88507 31.6777 8.73122V8.3466H26.1497V8.73122C27.4435 8.92353 27.9924 8.80814 27.9924 10.6543V19.3081C27.9924 21.1928 27.4435 21.0774 26.1497 21.2312V21.6158H34.9709C35.4021 21.6158 35.4805 21.2697 35.5982 20.962C35.755 20.6928 36.2254 18.6158 36.3038 18.1928ZM49.9472 14.6928C49.9472 11.0774 47.3989 8.30814 42.8903 8.30814H37.284V8.69276C38.6169 8.88507 39.1658 8.80814 39.1658 10.6158V19.2697C39.1658 21.1158 38.5777 21.0389 37.284 21.1928V21.5774H43.0079C47.2028 21.6543 49.9472 18.8466 49.9472 14.6928ZM61.5911 18.1928L61.199 18.1158C60.5717 20.0005 59.4348 20.9235 56.9649 20.9235C55.1222 20.9235 54.8478 20.9235 54.8478 19.0774V14.962H56.612C58.4547 14.962 59.0035 15.6928 59.082 16.3466H59.3956C59.3564 15.2697 59.3564 13.6928 59.3956 12.8081H59.1212C58.7683 14.0005 58.5331 14.1928 56.612 14.1928H54.8478V10.9235C54.8478 9.07737 54.9654 9.03891 56.8473 9.03891C58.1018 9.03891 59.9445 8.92353 60.0229 11.0774H60.4149C60.4541 10.5389 60.611 9.07737 60.611 8.8466C60.611 8.50045 60.6109 8.3466 60.1797 8.3466H51.2409V8.73122C52.5739 8.92353 53.0836 8.8466 53.0836 10.6543V19.3081C53.0836 21.1543 52.5347 21.0774 51.2409 21.2312V21.6158H60.5717C60.7678 21.2312 61.0814 20.462 61.199 19.9235L61.5911 18.1928ZM76.6066 8.76968V8.3466H72.1764V8.76968C73.4702 8.92353 74.0191 9.00045 74.0191 10.8851V18.6543L66.5309 9.03891C66.5309 9.03891 66.3349 8.80814 65.982 8.3466H62.8848V8.73122C64.1002 8.92353 64.8451 9.23122 64.8451 10.8466V19.1543C64.8451 21.0774 64.2962 21.0774 63.0025 21.2697V21.6543H67.4718V21.2697C66.1389 21.0774 65.6292 21.0005 65.6292 19.1543V10.8851L74.2151 21.8851H74.764V10.8851C74.764 8.96199 75.352 8.96199 76.6066 8.76968ZM90.4068 14.6928C90.4068 11.0774 87.8584 8.30814 83.3499 8.30814H77.7827V8.69276C79.0765 8.88507 79.6254 8.80814 79.6254 10.6158V19.2697C79.6254 21.1158 79.0373 21.0389 77.7827 21.1928V21.5774H83.4675C87.7016 21.6543 90.4068 18.8466 90.4068 14.6928ZM103.893 21.6543V21.2697C103.148 21.1928 102.6 20.7697 102.09 19.6158L97.5029 8.23122H96.6796L91.9358 20.0389C91.5045 21.1928 90.6028 21.1928 90.1323 21.2312V21.6158H94.5233V21.2312C93.1903 21.0774 92.563 20.8466 93.0727 19.462L94.3273 16.2312H98.875L100.13 19.462C100.757 21.0774 100.13 21.0774 98.875 21.2697V21.6543H103.893ZM114.831 18.1928L114.439 18.0389C113.812 19.8851 112.675 20.9235 110.441 20.9235C108.559 20.9235 108.284 20.8466 108.284 18.962V10.6543C108.284 8.80814 108.951 8.88507 110.205 8.73122V8.3466H104.677V8.73122C106.01 8.92353 106.52 8.80814 106.52 10.6543V19.3081C106.52 21.1928 105.971 21.0774 104.677 21.2312V21.6158H113.499C113.93 21.6158 114.047 21.2697 114.165 20.962C114.283 20.6928 114.753 18.6158 114.831 18.1928ZM98.6006 15.5389H94.5625L96.5227 10.3466L98.6006 15.5389Z" fill="black"/>
<path d="M133.767 30C138.511 30 140.511 29.2692 142 27C143.412 24.8077 144 22.0385 144 15C144 7.96154 143.373 5.19231 142 3C140.511 0.730769 138.55 0 133.767 0H133.846C129.102 0 127.103 0.730769 125.613 3C124.201 5.19231 123.613 7.96154 123.613 15C123.613 22.0385 124.241 24.8077 125.613 27C127.103 29.2692 129.063 30 133.846 30H133.767ZM133.846 29.1538C129.729 29.1538 127.887 28.6923 126.71 26.7308C125.495 24.7308 125.299 21.8077 125.299 15C125.299 8.19231 125.495 5.26923 126.71 3.26923C127.887 1.26923 129.729 0.846154 133.846 0.846154H133.767C137.884 0.846154 139.727 1.30769 140.903 3.26923C142.118 5.26923 142.314 8.19231 142.314 15C142.314 21.8077 142.118 24.7308 140.903 26.7308C139.727 28.7308 137.884 29.1538 133.767 29.1538H133.846Z" fill="black"/>
<path d="M129.533 19.9229C129.18 19.9229 128.867 20.2305 128.867 20.5767C128.867 20.9229 129.18 21.2305 129.533 21.2305C129.886 21.2305 130.2 20.9229 130.2 20.5767C130.2 20.2305 129.886 19.9229 129.533 19.9229Z" fill="black"/>
<path d="M133.689 4.76901C133.689 4.5767 133.493 4.42285 133.336 4.42285C133.101 4.42285 132.944 4.61516 132.944 4.76901C132.944 4.99977 133.14 5.15362 133.336 5.15362C133.493 5.15362 133.689 4.96131 133.689 4.76901Z" fill="black"/>
<path d="M134.983 12.6543C133.611 12.0005 133.297 11.2697 133.297 10.4236C133.297 8.50048 135.257 6.96202 135.257 5.30817C135.257 4.23125 134.473 3.53894 133.258 3.53894C132.944 3.53894 132.591 3.69279 132.435 3.76971C131.768 3.5774 129.533 3.19279 129.141 3.15432C129.141 3.11586 129.102 3.19279 129.141 3.19279C129.298 3.26971 131.807 4.38509 132.278 4.84663C132.317 4.88509 132.474 5.0774 132.513 5.0774C132.552 5.0774 132.591 5.03894 132.591 4.92355C132.591 4.92355 132.552 4.84663 132.552 4.69279C132.552 4.34663 132.866 4.03894 133.376 4.03894C134.199 4.03894 134.787 4.61586 134.787 5.30817C134.787 6.03894 134.238 6.88509 134.042 6.88509C134.003 6.88509 133.964 6.84663 133.964 6.84663C133.964 6.69279 134.081 6.34663 134.081 6.11586C134.081 5.76971 133.964 5.38509 133.297 5.38509H133.14C133.101 5.42355 133.18 5.42356 133.219 5.42356C133.336 5.42356 133.493 5.65432 133.493 5.96202C133.493 7.69279 130.278 10.7312 130.278 12.5005C130.278 15.2312 133.454 17.5774 134.591 18.2697C134.709 18.3466 134.709 18.462 134.709 18.5389C134.709 18.5774 134.63 18.8082 134.513 18.8082H129.808C129.337 18.8082 128.828 18.962 128.593 19.0389C128.436 19.0774 127.965 19.5774 127.808 19.8851C127.769 20.1928 127.848 20.8082 128.083 21.1928C128.24 21.4236 128.553 21.3082 128.397 21.1543C128.357 21.0774 128.279 20.8082 128.279 20.5774C128.279 19.9236 128.828 19.4236 129.455 19.4236C130.122 19.4236 130.631 19.962 130.631 20.5774C130.631 20.6928 130.749 20.7697 130.749 20.7697C130.984 20.7697 130.984 20.5389 130.984 20.4236C130.984 20.1159 130.749 19.8082 130.749 19.5774C130.749 19.462 130.827 19.3466 131.141 19.3466C132.043 19.3466 134.63 19.7312 134.905 19.7312C135.179 19.7312 135.414 18.962 135.649 18.962C135.924 18.962 136.63 21.3851 136.63 21.7312V22.1159C136.63 22.3851 136.786 22.5774 136.669 22.8466C135.532 25.6543 135.336 26.3082 135.336 26.3082C135.101 26.8466 132.866 26.8851 132.317 26.8851C131.964 26.8851 131.729 27.1159 131.729 27.2313C131.729 27.3082 131.729 27.3851 131.807 27.3851C132.082 27.3851 132.631 27.1543 135.336 27.1543C135.924 27.1543 136.238 27.3466 136.473 27.3466C136.512 27.3466 136.551 27.2697 136.551 27.2313C136.551 26.962 135.493 26.9236 135.689 26.462C135.689 26.462 135.806 26.2312 137.296 22.9236C137.335 22.8466 137.492 22.5389 137.492 22.2697C137.492 22.0389 137.257 21.6159 137.178 21.3082C137.139 21.1159 136.865 19.8466 136.904 19.6928H136.982C137.492 19.6928 138.002 20.7697 138.119 21.1543C138.198 21.462 138.511 21.462 138.786 21.5005V21.9236C138.786 22.1159 139.099 22.1543 139.296 22.1543C139.413 22.1543 139.531 20.962 139.531 20.7697C139.609 17.6543 137.963 14.1159 134.983 12.6543Z" fill="black"/>
</svg>
