<svg width="149" height="31" viewBox="0 0 149 31" fill="none" xmlns="http://www.w3.org/2000/svg">
<path d="M49.3079 17.5868C49.3079 22.0195 46.4926 23.712 43.9588 23.712C42.0283 23.712 41.9479 23.4702 41.9479 21.8583V13.3959C41.9479 11.5423 41.9077 11.2602 43.6773 11.2602C46.3719 11.2602 49.3079 13.3959 49.3079 17.5868ZM90.8536 17.5868C90.8536 22.0195 87.9981 23.712 85.4643 23.712C83.5338 23.712 83.4936 23.4702 83.4936 21.8583V13.3959C83.4936 11.5423 83.4534 11.2602 85.1828 11.2602C87.8774 11.2602 90.8536 13.3959 90.8536 17.5868ZM12.4275 19.1987V18.5137C11.1003 18.5137 8.4861 18.4734 7.23933 18.3525V19.1987H9.37091C9.69266 19.1987 9.93397 19.4405 9.93397 19.8838V22.3419C9.93397 23.3493 9.29047 23.9941 7.64152 23.9941C4.786 23.9941 2.01093 22.221 2.01093 17.4256C2.01093 14.2825 3.7001 11.099 6.99802 11.099C9.49157 11.099 10.2155 12.187 10.859 14.2422H11.4221V13.2347C11.4221 12.7915 11.3818 11.6229 11.221 11.0587C10.0144 10.6557 8.92851 10.3333 7.11868 10.3333C3.01639 10.3333 0 13.5571 0 17.7883C0 21.2942 1.89027 24.8 6.83715 24.8C8.92851 24.8 10.4568 24.2761 11.3818 23.9135C11.3818 22.5031 11.3818 20.6091 11.6231 19.1987H12.4275ZM25.7398 10.9378V10.5348H20.9538V10.9378C21.9593 11.1393 22.8441 11.3408 22.1604 12.59L19.7071 16.9421L17.4548 12.993C16.4896 11.3005 16.7309 11.1393 18.0581 10.9781V10.5751H13.0308V10.9781C14.0765 11.1796 14.8406 11.8243 15.6048 13.2347L18.3799 17.9898V21.8986C18.3799 23.8329 17.857 23.9135 16.57 24.115V24.5179H21.9995V24.115C20.6321 23.9135 20.1495 23.7926 20.1495 21.8986V17.7883L23.0854 12.5497C23.8898 11.0587 24.7746 11.0587 25.7398 10.9378ZM37.2423 20.8509L36.8402 20.6897C36.1967 22.624 35.0303 23.712 32.7379 23.712C30.8074 23.712 30.4856 23.6314 30.4856 21.6568V12.9527C30.4856 11.0184 31.1693 11.099 32.4966 10.9378V10.5348H26.8257V10.9378C28.153 11.1393 28.716 11.0184 28.716 12.9527V22.0195C28.716 23.9941 28.153 23.8732 26.8257 24.0344V24.4373H35.8749C36.3173 24.4373 36.3977 24.0747 36.5184 23.7523C36.6793 23.4702 37.1619 21.2942 37.2423 20.8509ZM51.2384 17.1839C51.2384 13.3959 48.6242 10.4945 43.999 10.4945H38.2478V10.8975C39.6152 11.099 40.1783 11.0184 40.1783 12.9124V21.9792C40.1783 23.9135 39.575 23.8329 38.2478 23.9941V24.397H44.1197C48.4231 24.4776 51.2384 21.5359 51.2384 17.1839ZM63.1833 20.8509L62.7811 20.7703C62.1376 22.7449 60.9713 23.712 58.4375 23.712C56.5472 23.712 56.2657 23.712 56.2657 21.7777V17.4659H58.0755C59.9658 17.4659 60.5288 18.2316 60.6093 18.9166H60.931C60.8908 17.7883 60.8908 16.1361 60.931 15.2093H60.6495C60.2875 16.4585 60.0462 16.66 58.0755 16.66H56.2657V13.2347C56.2657 11.3005 56.3863 11.2602 58.3168 11.2602C59.6038 11.2602 61.4941 11.1393 61.5745 13.3959H61.9767C62.0169 12.8318 62.1778 11.3005 62.1778 11.0587C62.1778 10.696 62.1778 10.5348 61.7354 10.5348H52.5656V10.9378C53.933 11.1393 54.4559 11.0587 54.4559 12.9527V22.0195C54.4559 23.9538 53.8928 23.8732 52.5656 24.0344V24.4373H62.1376C62.3387 24.0344 62.6604 23.2284 62.7811 22.6643L63.1833 20.8509ZM78.587 10.9781V10.5348H74.0423V10.9781C75.3695 11.1393 75.9325 11.2199 75.9325 13.1944V21.3345L68.2508 11.2602C68.2508 11.2602 68.0497 11.0184 67.6877 10.5348H64.5105V10.9378C65.7573 11.1393 66.5214 11.4617 66.5214 13.1541V21.8583C66.5214 23.8732 65.9583 23.8732 64.6311 24.0747V24.4776H69.2161V24.0747C67.8486 23.8732 67.3258 23.7926 67.3258 21.8583V13.1944L76.1336 24.7194H76.6967V13.1944C76.6967 11.1796 77.3 11.1796 78.587 10.9781ZM92.7439 17.1839C92.7439 13.3959 90.1297 10.4945 85.5045 10.4945H79.7935V10.8975C81.1207 11.099 81.6838 11.0184 81.6838 12.9124V21.9792C81.6838 23.9135 81.0805 23.8329 79.7935 23.9941V24.397H85.6252C89.9688 24.4776 92.7439 21.5359 92.7439 17.1839ZM106.579 24.4776V24.0747C105.815 23.9941 105.252 23.5508 104.729 22.3419L100.023 10.4139H99.1788L94.3124 22.7852C93.87 23.9941 92.945 23.9941 92.4623 24.0344V24.4373H96.9668V24.0344C95.5994 23.8732 94.9559 23.6314 95.4787 22.1807L96.7657 18.7957H101.431L102.718 22.1807C103.362 23.8732 102.718 23.8732 101.431 24.0747V24.4776H106.579ZM117.8 20.8509L117.398 20.6897C116.754 22.624 115.588 23.712 113.296 23.712C111.365 23.712 111.084 23.6314 111.084 21.6568V12.9527C111.084 11.0184 111.767 11.099 113.054 10.9378V10.5348H107.383V10.9378C108.751 11.1393 109.274 11.0184 109.274 12.9527V22.0195C109.274 23.9941 108.711 23.8732 107.383 24.0344V24.4373H116.433C116.875 24.4373 116.996 24.0747 117.116 23.7523C117.237 23.4702 117.72 21.2942 117.8 20.8509ZM101.15 18.0704H97.007L99.018 12.6303L101.15 18.0704Z" fill="black"/>
<path d="M137.39 31C142.68 31 144.909 30.2449 146.571 27.9C148.144 25.6346 148.8 22.7731 148.8 15.5C148.8 8.22692 148.101 5.36538 146.571 3.1C144.909 0.755128 142.723 0 137.39 0H137.477C132.187 0 129.958 0.755128 128.297 3.1C126.723 5.36538 126.067 8.22692 126.067 15.5C126.067 22.7731 126.766 25.6346 128.297 27.9C129.958 30.2449 132.144 31 137.477 31H137.39ZM137.477 30.1256C132.887 30.1256 130.832 29.6487 129.521 27.6218C128.165 25.5551 127.947 22.5346 127.947 15.5C127.947 8.46538 128.165 5.44487 129.521 3.37821C130.832 1.31154 132.887 0.874359 137.477 0.874359H137.39C141.98 0.874359 144.035 1.35128 145.347 3.37821C146.702 5.44487 146.92 8.46538 146.92 15.5C146.92 22.5346 146.702 25.5551 145.347 27.6218C144.035 29.6885 141.98 30.1256 137.39 30.1256H137.477Z" fill="black"/>
<path d="M137.792 12.6074C136.342 11.8827 136.01 11.0728 136.01 10.135C136.01 8.00371 138.082 6.29865 138.082 4.4657C138.082 3.27216 137.253 2.50488 135.969 2.50488C135.637 2.50488 135.265 2.67539 135.099 2.76064C134.395 2.54751 132.033 2.12124 131.619 2.07862C131.619 2.03599 131.577 2.12124 131.619 2.12124C131.785 2.2065 134.436 3.44267 134.933 3.95419C134.975 3.99681 135.14 4.20994 135.182 4.20994C135.223 4.20994 135.265 4.16732 135.265 4.03944C135.265 4.03944 135.223 3.95418 135.223 3.78368C135.223 3.40004 135.555 3.05903 136.093 3.05903C136.963 3.05903 137.585 3.69843 137.585 4.4657C137.585 5.27561 137.005 6.21339 136.797 6.21339C136.756 6.21339 136.715 6.17077 136.715 6.17077C136.715 6.00026 136.839 5.61662 136.839 5.36086C136.839 4.97722 136.715 4.55096 136.01 4.55096H135.845C135.803 4.59358 135.886 4.59358 135.927 4.59358C136.052 4.59358 136.217 4.84934 136.217 5.19036C136.217 7.10855 132.82 10.476 132.82 12.4369C132.82 15.4634 136.176 18.0636 137.377 18.8309C137.502 18.9161 137.502 19.044 137.502 19.1292C137.502 19.1719 137.419 19.4276 137.295 19.4276H132.323C131.826 19.4276 131.287 19.5981 131.039 19.6834C130.873 19.726 130.376 20.2802 130.21 20.6212C130.169 20.9622 130.252 21.6442 130.5 22.0705C130.666 22.3262 130.998 22.1984 130.832 22.0278C130.79 21.9426 130.708 21.6442 130.708 21.3884C130.708 20.6638 131.288 20.1097 131.95 20.1097C132.655 20.1097 133.193 20.7064 133.193 21.3884C133.193 21.5163 133.317 21.6016 133.317 21.6016C133.566 21.6016 133.566 21.3458 133.566 21.2179C133.566 20.8769 133.317 20.5359 133.317 20.2802C133.317 20.1523 133.4 20.0244 133.732 20.0244C134.685 20.0244 137.419 20.4507 137.709 20.4507C137.999 20.4507 138.247 19.5981 138.496 19.5981C138.786 19.5981 139.532 22.2836 139.532 22.6672V23.0935C139.532 23.3919 139.697 23.605 139.573 23.9034C138.372 27.0152 138.165 27.7398 138.165 27.7398C137.916 28.3366 135.555 28.3792 134.975 28.3792C134.602 28.3792 134.353 28.635 134.353 28.7628C134.353 28.8481 134.353 28.9333 134.436 28.9333C134.726 28.9333 135.306 28.6776 138.165 28.6776C138.786 28.6776 139.117 28.8907 139.366 28.8907C139.407 28.8907 139.449 28.8055 139.449 28.7628C139.449 28.4645 138.33 28.4218 138.537 27.9103C138.537 27.9103 138.662 27.6546 140.236 23.9887C140.277 23.9034 140.443 23.5624 140.443 23.264C140.443 23.0083 140.195 22.5394 140.112 22.1984C140.07 21.9852 139.78 20.5785 139.822 20.408H139.905C140.443 20.408 140.982 21.6016 141.106 22.0278C141.189 22.3689 141.52 22.3689 141.81 22.4115V22.8804C141.81 23.0935 142.142 23.1361 142.349 23.1361C142.473 23.1361 142.597 21.8147 142.597 21.6016C142.68 18.1488 140.94 14.2272 137.792 12.6074Z" fill="black"/>
</svg>
