<svg width="21" height="30" viewBox="0 0 21 30" fill="none" xmlns="http://www.w3.org/2000/svg">
<path d="M6.53318 19.9229C6.18033 19.9229 5.8667 20.2305 5.8667 20.5767C5.8667 20.9229 6.18033 21.2305 6.53318 21.2305C6.88602 21.2305 7.19967 20.9229 7.19967 20.5767C7.19967 20.2305 6.88602 19.9229 6.53318 19.9229Z" fill="black"/>
<path d="M10.7674 30C15.5112 30 17.5107 29.2692 19.0004 27C20.4118 24.8077 20.9999 22.0385 20.9999 15C20.9999 7.96154 20.3726 5.19231 19.0004 3C17.5107 0.730769 15.5504 0 10.7674 0H10.8458C6.10198 0 4.10253 0.730769 2.61274 3C1.20136 5.19231 0.613281 7.96154 0.613281 15C0.613281 22.0385 1.24056 24.8077 2.61274 27C4.10253 29.2692 6.06278 30 10.8458 30H10.7674ZM10.8458 29.1538C6.72927 29.1538 4.88664 28.6923 3.71049 26.7308C2.49513 24.7308 2.2991 21.8077 2.2991 15C2.2991 8.19231 2.49513 5.26923 3.71049 3.26923C4.88664 1.26923 6.72927 0.846154 10.8458 0.846154H10.7674C14.8839 0.846154 16.7265 1.30769 17.9027 3.26923C19.118 5.26923 19.3141 8.19231 19.3141 15C19.3141 21.8077 19.118 24.7308 17.9027 26.7308C16.7265 28.7308 14.8839 29.1538 10.7674 29.1538H10.8458Z" fill="black"/>
<path d="M11.983 12.6543C10.6108 12.0005 10.2972 11.2697 10.2972 10.4236C10.2972 8.50048 12.2574 6.96202 12.2574 5.30817C12.2574 4.23125 11.4733 3.53894 10.2579 3.53894C9.94431 3.53894 9.59146 3.69279 9.43464 3.76971C8.76816 3.5774 6.53347 3.19279 6.14142 3.15432C6.14142 3.11586 6.10222 3.19279 6.14142 3.19279C6.29824 3.26971 8.80736 4.38509 9.27782 4.84663C9.31703 4.88509 9.47385 5.0774 9.51306 5.0774C9.55226 5.0774 9.59147 5.03894 9.59147 4.92356C9.59147 4.92356 9.55226 4.84663 9.55226 4.69279C9.55226 4.34663 9.86591 4.03894 10.3756 4.03894C11.1989 4.03894 11.7869 4.61586 11.7869 5.30817C11.7869 6.03894 11.2381 6.88509 11.042 6.88509C11.0028 6.88509 10.9636 6.84663 10.9636 6.84663C10.9636 6.69279 11.0813 6.34663 11.0813 6.11586C11.0813 5.76971 10.9636 5.38509 10.2972 5.38509H10.1403C10.1011 5.42355 10.1795 5.42356 10.2187 5.42356C10.3364 5.42356 10.4932 5.65432 10.4932 5.96202C10.4932 7.69279 7.27837 10.7312 7.27837 12.5005C7.27837 15.2312 10.454 17.5774 11.5909 18.2697C11.7085 18.3466 11.7085 18.462 11.7085 18.5389C11.7085 18.5774 11.6301 18.8082 11.5125 18.8082H6.80791C6.33745 18.8082 5.82779 18.962 5.59255 19.0389C5.43573 19.0774 4.96527 19.5774 4.80845 19.8851C4.76925 20.1928 4.84766 20.8082 5.08289 21.1928C5.23971 21.4236 5.55335 21.3082 5.39653 21.1543C5.35732 21.0774 5.27892 20.8082 5.27892 20.5774C5.27892 19.9236 5.82779 19.4236 6.45507 19.4236C7.12156 19.4236 7.63122 19.962 7.63122 20.5774C7.63122 20.6928 7.74883 20.7697 7.74883 20.7697C7.98406 20.7697 7.98406 20.5389 7.98406 20.4236C7.98406 20.1159 7.74883 19.8082 7.74883 19.5774C7.74883 19.462 7.82724 19.3466 8.14088 19.3466C9.0426 19.3466 11.6301 19.7312 11.9046 19.7312C12.179 19.7312 12.4142 18.962 12.6495 18.962C12.9239 18.962 13.6296 21.3851 13.6296 21.7312V22.1159C13.6296 22.3851 13.7864 22.5774 13.6688 22.8466C12.5318 25.6543 12.3358 26.3082 12.3358 26.3082C12.1006 26.8466 9.8659 26.8851 9.31703 26.8851C8.96419 26.8851 8.72896 27.1159 8.72896 27.2313C8.72896 27.3082 8.72896 27.3851 8.80737 27.3851C9.08181 27.3851 9.63068 27.1543 12.3358 27.1543C12.9239 27.1543 13.2375 27.3466 13.4728 27.3466C13.512 27.3466 13.5512 27.2697 13.5512 27.2313C13.5512 26.962 12.4926 26.9236 12.6887 26.462C12.6887 26.462 12.8063 26.2312 14.2961 22.9236C14.3353 22.8466 14.4921 22.5389 14.4921 22.2697C14.4921 22.0389 14.2569 21.6159 14.1785 21.3082C14.1392 21.1159 13.8648 19.8466 13.904 19.6928H13.9824C14.4921 19.6928 15.0018 20.7697 15.1194 21.1543C15.1978 21.462 15.5114 21.462 15.7859 21.5005V21.9236C15.7859 22.1159 16.0995 22.1543 16.2955 22.1543C16.4131 22.1543 16.5308 20.962 16.5308 20.7697C16.6092 17.6543 14.9625 14.1159 11.983 12.6543Z" fill="black"/>
</svg>
