<svg width="23" height="30" viewBox="0 0 23 30" fill="none" xmlns="http://www.w3.org/2000/svg">
<path d="M11.4978 30C16.8303 30 19.0779 29.2692 20.7526 27C22.3391 24.8077 23.0002 22.0385 23.0002 15C23.0002 7.96154 22.295 5.19231 20.7526 3C19.0779 0.730769 16.8744 0 11.4978 0H11.5859C6.25337 0 4.00577 0.730769 2.33109 3C0.744556 5.19231 0.0834961 7.96154 0.0834961 15C0.0834961 22.0385 0.788627 24.8077 2.33109 27C4.00577 29.2692 6.2093 30 11.5859 30H11.4978ZM11.5859 29.1538C6.9585 29.1538 4.88719 28.6923 3.56508 26.7308C2.19889 24.7308 1.97854 21.8077 1.97854 15C1.97854 8.19231 2.19889 5.26923 3.56508 3.26923C4.88719 1.26923 6.9585 0.846154 11.5859 0.846154H11.4978C16.1252 0.846154 18.1965 1.30769 19.5186 3.26923C20.8848 5.26923 21.1051 8.19231 21.1051 15C21.1051 21.8077 20.8848 24.7308 19.5186 26.7308C18.1965 28.7308 16.1252 29.1538 11.4978 29.1538H11.5859Z" fill="black"/>
<path d="M11.9027 12.2007C10.4411 11.4994 10.107 10.7156 10.107 9.80809C10.107 7.74551 12.1951 6.09545 12.1951 4.32164C12.1951 3.16659 11.3598 2.42407 10.0652 2.42407C9.7311 2.42407 9.35524 2.58907 9.18819 2.67157C8.47823 2.46532 6.09779 2.0528 5.68017 2.01155C5.68017 1.9703 5.6384 2.0528 5.68017 2.0528C5.84722 2.13531 8.52 3.3316 9.02114 3.82662C9.0629 3.86787 9.22996 4.07413 9.27172 4.07413C9.31348 4.07413 9.35525 4.03287 9.35525 3.90912C9.35525 3.90912 9.31348 3.82662 9.31348 3.66161C9.31348 3.29035 9.64758 2.96034 10.1905 2.96034C11.0675 2.96034 11.6939 3.57911 11.6939 4.32164C11.6939 5.10541 11.1093 6.01295 10.9004 6.01295C10.8587 6.01295 10.8169 5.9717 10.8169 5.9717C10.8169 5.80669 10.9422 5.43543 10.9422 5.18792C10.9422 4.81665 10.8169 4.40414 10.107 4.40414H9.93991C9.89815 4.44539 9.98167 4.44539 10.0234 4.44539C10.1487 4.44539 10.3158 4.6929 10.3158 5.02291C10.3158 6.87923 6.89127 10.1381 6.89127 12.0357C6.89127 14.9645 10.274 17.4809 11.4851 18.2234C11.6104 18.3059 11.6104 18.4297 11.6104 18.5122C11.6104 18.5534 11.5269 18.8009 11.4016 18.8009H6.39013C5.88898 18.8009 5.34607 18.9659 5.0955 19.0484C4.92845 19.0897 4.4273 19.6259 4.26025 19.956C4.21849 20.286 4.30202 20.946 4.55259 21.3585C4.71964 21.606 5.05374 21.4823 4.88669 21.3173C4.84493 21.2348 4.76141 20.946 4.76141 20.6985C4.76141 19.9972 5.34608 19.4609 6.01427 19.4609C6.72423 19.4609 7.26714 20.0385 7.26714 20.6985C7.26714 20.8222 7.39242 20.9047 7.39242 20.9047C7.64299 20.9047 7.64299 20.6572 7.64299 20.5335C7.64299 20.2035 7.39242 19.8735 7.39242 19.6259C7.39242 19.5022 7.47594 19.3784 7.81004 19.3784C8.77057 19.3784 11.5269 19.791 11.8192 19.791C12.1115 19.791 12.3621 18.9659 12.6127 18.9659C12.905 18.9659 13.6567 21.5648 13.6567 21.936V22.3485C13.6567 22.6373 13.8238 22.8436 13.6985 23.1323C12.4874 26.1437 12.2786 26.845 12.2786 26.845C12.028 27.4225 9.64758 27.4637 9.06291 27.4637C8.68705 27.4637 8.43647 27.7112 8.43647 27.835C8.43647 27.9175 8.43648 28 8.52 28C8.81234 28 9.39701 27.7525 12.2786 27.7525C12.905 27.7525 13.2391 27.9587 13.4897 27.9587C13.5315 27.9587 13.5732 27.8762 13.5732 27.835C13.5732 27.5462 12.4456 27.505 12.6545 27.01C12.6545 27.01 12.7797 26.7625 14.3667 23.2148C14.4085 23.1323 14.5755 22.8023 14.5755 22.5136C14.5755 22.266 14.3249 21.8123 14.2414 21.4823C14.1997 21.276 13.9073 19.9147 13.9491 19.7497H14.0326C14.5755 19.7497 15.1184 20.9047 15.2437 21.3173C15.3272 21.6473 15.6613 21.6473 15.9537 21.6885V22.1423C15.9537 22.3485 16.2878 22.3898 16.4966 22.3898C16.6219 22.3898 16.7471 21.111 16.7471 20.9047C16.8307 17.5634 15.0767 13.7682 11.9027 12.2007Z" fill="black"/>
</svg>
