<svg width="51" height="38" viewBox="0 0 51 38" fill="none" xmlns="http://www.w3.org/2000/svg">
<path d="M29.169 37.1509C28.5228 37.1678 27.5734 36.9236 27.6868 35.8483C27.6762 34.3185 27.7659 32.7955 27.8081 31.2658C27.8081 24.7328 27.8266 18.1998 27.8002 11.6634C27.7896 11.2496 27.7685 10.8324 27.7501 10.422C27.7554 9.76731 28.5228 9.74356 28.5413 10.422C28.6837 14.7637 28.5677 19.1122 28.6019 23.4574C28.6389 27.6397 28.5729 31.8186 28.478 36.001C29.5408 36.3232 30.6881 36.0315 31.7614 36.001C33.1012 35.8585 34.4489 35.7194 35.7834 35.6448C40.5042 35.4616 45.2276 35.5634 49.9511 35.543C50.141 34.5695 50.0803 33.5214 49.9484 32.5411C48.1867 31.5812 46.694 30.0378 45.0351 28.854C44.7344 28.6234 44.4391 28.3758 44.1358 28.1451C43.7876 27.9246 43.4263 27.6329 43.3947 27.0834C43.218 24.7701 43.3498 22.4296 43.3103 20.1061C43.3314 15.7203 43.2628 11.331 43.3419 6.94856C43.4369 4.86249 43.4685 2.77302 43.5529 0.686946C43.5661 0.0322918 44.3336 0.0085478 44.3441 0.686946C44.3309 1.15843 44.3151 1.62653 44.2887 2.09463C44.1279 6.4262 44.0672 10.7578 44.1015 15.0927C44.1701 19.0512 43.9591 23.0843 44.1991 27.0224C45.734 28.1655 47.2373 29.373 48.7142 30.6145C49.1994 30.9639 49.7005 31.2725 50.2042 31.571C50.3809 31.6796 50.5577 31.7949 50.6473 32.0323C50.9137 33.111 50.89 34.2948 50.7924 35.4108C50.6974 36.4894 50.1621 36.6353 49.4262 36.5606C44.5999 36.598 39.7657 36.4487 34.9447 36.7167C32.9957 36.849 31.1153 37.1678 29.1716 37.1475L29.169 37.1509Z" fill="black"/>
<path d="M21.6914 36.9638C22.3375 36.9808 23.287 36.7366 23.1736 35.6613C23.1841 34.1315 23.0944 32.6085 23.0522 31.0787C23.0522 24.5458 23.0338 18.0128 23.0602 11.4764C23.0707 11.0626 23.0918 10.6454 23.1103 10.2349C23.105 9.58029 22.3375 9.55655 22.3191 10.2349C22.1767 14.5767 22.2927 18.9252 22.2584 23.2704C22.2215 27.4527 22.2874 31.6316 22.3824 35.814C21.3195 36.1362 20.1723 35.8445 19.0989 35.814C17.7591 35.6715 16.4115 35.5324 15.077 35.4578C10.3562 35.2746 5.63273 35.3764 0.909286 35.356C0.719398 34.3825 0.78006 33.3344 0.911926 32.3541C2.67366 31.3942 4.16638 29.8508 5.82525 28.667C6.12591 28.4364 6.42129 28.1888 6.72458 27.9581C7.07271 27.7376 7.43402 27.4459 7.46567 26.8964C7.64237 24.5831 7.5105 22.2426 7.55006 19.9191C7.52896 15.5332 7.59754 11.144 7.51842 6.76155C7.42347 4.67548 7.39183 2.58601 7.30743 0.499934C7.29425 -0.15472 6.52679 -0.178464 6.51624 0.499934C6.52942 0.971421 6.54525 1.43952 6.57162 1.90761C6.7325 6.23919 6.79315 10.5708 6.75887 14.9057C6.6903 18.8642 6.90128 22.8973 6.66129 26.8354C5.12637 27.9785 3.62309 29.186 2.14619 30.4275C1.66092 30.7768 1.15983 31.0855 0.656105 31.384C0.479404 31.4926 0.302698 31.6079 0.213028 31.8453C-0.0533409 32.924 -0.0296021 34.1078 0.0679798 35.2238C0.162922 36.3024 0.698298 36.4483 1.43411 36.3736C6.26041 36.4109 11.0946 36.2617 15.9157 36.5297C17.8646 36.662 19.745 36.9808 21.6888 36.9604L21.6914 36.9638Z" fill="black"/>
<path d="M47.2556 31.9208C47.071 31.3272 47.2002 30.6556 47.2899 30.0484C46.0424 31.5782 45.7259 30.4758 45.7259 28.773C45.3514 29.0919 45.056 29.5634 44.6816 29.8619C44.489 29.9772 44.2279 29.8449 44.1224 29.6143C43.9273 29.0614 44.2754 28.4847 44.4416 27.9895C44.0433 28.4813 43.6635 29.0003 43.2759 29.5091C43.1255 29.7092 42.8671 29.7025 42.7167 29.5091C42.5664 29.3158 42.5664 28.9901 42.7167 28.79C43.3682 27.9624 43.9537 27.0058 44.758 26.4122C45.1932 25.995 45.9923 26.2426 45.7602 27.0771C45.6679 27.3281 45.536 27.5587 45.4253 27.8029C45.7655 27.4637 46.3826 27.3993 46.5013 28.0641C46.5488 28.5356 46.496 29.0274 46.5488 29.5023C46.9286 29.1563 47.2872 28.6136 47.7804 28.6102C48.2841 28.634 48.2288 29.4379 48.1206 29.8788C48.2894 29.5939 48.4556 29.3056 48.6164 29.0139C48.9329 28.4881 49.5501 29.1021 49.2441 29.6346C48.9039 30.2452 48.532 30.8286 48.2551 31.49C48.1048 31.8021 47.9835 32.2464 47.6433 32.2295C47.4718 32.2295 47.3347 32.0972 47.2503 31.9106L47.2556 31.9208Z" fill="black"/>
<path d="M3.60477 31.7338C3.78938 31.1402 3.66015 30.4686 3.57049 29.8614C4.81794 31.3912 5.13442 30.2888 5.13442 28.586C5.50892 28.9049 5.8043 29.3764 6.1788 29.6749C6.37133 29.7902 6.63242 29.6579 6.73791 29.4273C6.93307 28.8744 6.58494 28.2977 6.41879 27.8025C6.81703 28.2943 7.1968 28.8133 7.58449 29.3221C7.73482 29.5222 7.99327 29.5154 8.1436 29.3221C8.29393 29.1288 8.29393 28.8031 8.1436 28.603C7.49218 27.7754 6.9067 26.8188 6.10232 26.2252C5.66716 25.808 4.86804 26.0556 5.10013 26.89C5.19244 27.141 5.32431 27.3717 5.43507 27.6159C5.09486 27.2767 4.47772 27.2123 4.35904 27.8771C4.31157 28.3486 4.36432 28.8404 4.31157 29.3153C3.9318 28.9693 3.57313 28.4266 3.07995 28.4232C2.57622 28.447 2.6316 29.2509 2.73973 29.6918C2.57094 29.4069 2.40479 29.1186 2.24391 28.8269C1.92743 28.3011 1.3103 28.9151 1.61623 29.4476C1.95644 30.0582 2.32831 30.6416 2.60522 31.303C2.75555 31.6151 2.87687 32.0594 3.21708 32.0425C3.38851 32.0425 3.52565 31.9102 3.61004 31.7236L3.60477 31.7338Z" fill="black"/>
<path d="M44.0067 26.0015C43.9935 25.9811 43.9829 25.9574 43.9724 25.9302C42.7065 25.8861 41.1267 26.2593 40.1535 24.9771C39.6946 24.2851 39.6841 22.7282 40.2828 22.1685C41.5882 21.3816 42.8568 22.8164 43.6585 24.0273C43.8537 22.9555 44.273 21.7784 45.1143 21.3375C46.5068 20.7778 48.3398 21.6461 47.2136 23.8001C46.6941 24.6582 45.9556 25.2077 45.1776 25.5842C44.7926 25.7742 44.3917 26.5408 44.004 25.9947L44.0067 26.0015ZM43.2392 24.9296C42.5614 24.0375 41.8098 22.7112 40.7153 23.0267C40.6863 23.047 40.6836 23.1318 40.6731 23.1658C40.2327 25.1535 42.2766 24.8957 43.2392 24.9296ZM44.3495 24.7668C44.3416 24.8143 44.3284 24.8584 44.3152 24.9025C44.3891 24.9025 44.4629 24.8957 44.5341 24.8923C45.0616 24.4683 45.7025 24.3122 46.1614 23.739C46.4436 23.4066 46.8128 23.0063 46.7548 22.4636C46.6282 22.3279 46.4462 22.3076 46.2932 22.2533C45.0352 21.7886 44.4998 23.4609 44.3522 24.7668H44.3495Z" fill="black"/>
<path d="M6.85369 25.8145C6.86687 25.7941 6.87742 25.7703 6.88797 25.7432C8.15388 25.6991 9.73364 26.0722 10.7068 24.7901C11.1657 24.0981 11.1763 22.5412 10.5776 21.9815C9.27211 21.1946 8.00355 22.6294 7.20181 23.8403C7.00665 22.7684 6.58732 21.5914 5.74601 21.1505C4.3535 20.5908 2.52057 21.4591 3.6467 23.613C4.16625 24.4712 4.90471 25.0207 5.68272 25.3972C6.06777 25.5872 6.46863 26.3538 6.85632 25.8077L6.85369 25.8145ZM7.62114 24.7426C8.29893 23.8505 9.05057 22.5242 10.1451 22.8397C10.1741 22.86 10.1767 22.9448 10.1873 22.9787C10.6277 24.9665 8.58376 24.7087 7.62114 24.7426ZM6.51083 24.5798C6.51874 24.6273 6.53193 24.6713 6.54512 24.7154C6.47127 24.7154 6.39743 24.7087 6.32622 24.7053C5.79876 24.2813 5.15789 24.1252 4.69899 23.552C4.4168 23.2196 4.04757 22.8193 4.10559 22.2766C4.23219 22.1409 4.41416 22.1206 4.56713 22.0663C5.82513 21.6016 6.36051 23.2738 6.5082 24.5798H6.51083Z" fill="black"/>
<path d="M40.3856 31.2758C40.2142 31.1028 40.1852 30.784 40.3144 30.5601C40.9421 29.4814 41.4959 28.4028 42.0524 27.2733C42.3689 26.6356 42.6669 25.9843 42.9939 25.3534C43.1126 25.1227 43.342 25.0244 43.5346 25.1702C43.7113 25.3025 43.7957 25.6383 43.677 25.8656C42.7856 27.6566 41.9363 29.4815 40.9421 31.1808C40.8128 31.4013 40.5544 31.4386 40.3856 31.2724V31.2758Z" fill="black"/>
<path d="M10.475 31.0893C10.6464 30.9163 10.6754 30.5974 10.5462 30.3736C9.91852 29.2949 9.36468 28.2163 8.80821 27.0867C8.49173 26.4491 8.19371 25.7978 7.86668 25.1669C7.748 24.9362 7.51855 24.8379 7.32603 24.9837C7.14933 25.116 7.06494 25.4518 7.18362 25.6791C8.07503 27.47 8.92425 29.2949 9.91852 30.9943C10.0477 31.2148 10.3062 31.2521 10.475 31.0859V31.0893Z" fill="black"/>
<line x1="28.6609" y1="25.4653" x2="44.6259" y2="25.4653" stroke="black"/>
<line x1="7.19092" y1="25.4653" x2="23.1559" y2="25.4653" stroke="black"/>
</svg>
