<svg width="50" height="37" viewBox="0 0 50 37" fill="none" xmlns="http://www.w3.org/2000/svg">
<path d="M28.6757 36.9994C28.0405 37.0163 27.1071 36.773 27.2186 35.7022C27.2082 34.1786 27.2964 32.6618 27.3379 31.1383C27.3379 24.632 27.356 18.1257 27.3301 11.6161C27.3197 11.2039 27.299 10.7884 27.2808 10.3797C27.286 9.72768 28.0405 9.70404 28.0587 10.3797C28.1987 14.7037 28.0846 19.0345 28.1183 23.3618C28.1546 27.5271 28.0898 31.6889 27.9964 35.8542C29.0413 36.1751 30.1691 35.8846 31.2244 35.8542C32.5415 35.7123 33.8663 35.5738 35.1783 35.4995C39.8192 35.3171 44.4628 35.4184 49.1063 35.3981C49.293 34.4286 49.2334 33.3848 49.1038 32.4085C47.3718 31.4525 45.9043 29.9154 44.2735 28.7365C43.978 28.5067 43.6876 28.2601 43.3894 28.0304C43.0472 27.8108 42.692 27.5203 42.6609 26.9731C42.4871 24.6692 42.6168 22.3383 42.5779 20.0242C42.5986 15.6563 42.5312 11.285 42.609 6.92046C42.7023 4.8429 42.7334 2.76197 42.8164 0.684416C42.8294 0.0324355 43.5839 0.00878853 43.5942 0.684416C43.5813 1.15398 43.5657 1.62016 43.5398 2.08634C43.3816 6.40022 43.322 10.7141 43.3557 15.0314C43.4231 18.9736 43.2157 22.9902 43.4516 26.9123C44.9606 28.0507 46.4384 29.2533 47.8904 30.4897C48.3674 30.8377 48.86 31.1451 49.3552 31.4423C49.529 31.5504 49.7027 31.6653 49.7908 31.9018C50.0527 32.976 50.0294 34.155 49.9334 35.2664C49.8401 36.3406 49.3138 36.4859 48.5904 36.4116C43.8457 36.4487 39.0933 36.3001 34.3538 36.567C32.4378 36.6987 30.5891 37.0163 28.6783 36.996L28.6757 36.9994Z" fill="black"/>
<path d="M21.3248 36.8129C21.96 36.8297 22.8934 36.5865 22.7819 35.5156C22.7922 33.9921 22.7041 32.4753 22.6626 30.9518C22.6626 24.4455 22.6445 17.9392 22.6704 11.4295C22.6808 11.0174 22.7015 10.6019 22.7197 10.1931C22.7145 9.54116 21.96 9.51751 21.9418 10.1931C21.8018 14.5172 21.9159 18.8479 21.8822 23.1753C21.8459 27.3406 21.9107 31.5024 22.0041 35.6677C20.9592 35.9886 19.8314 35.6981 18.7761 35.6677C17.459 35.5258 16.1341 35.3873 14.8222 35.313C10.1813 35.1305 5.5377 35.2319 0.894142 35.2116C0.707466 34.2421 0.767101 33.1982 0.896736 32.222C2.62867 31.266 4.09615 29.7289 5.72697 28.5499C6.02254 28.3202 6.31292 28.0736 6.61108 27.8439C6.95332 27.6243 7.30853 27.3338 7.33964 26.7865C7.51335 24.4827 7.38372 22.1517 7.42261 19.8377C7.40187 15.4698 7.46928 11.0985 7.3915 6.73393C7.29816 4.65638 7.26705 2.57545 7.18408 0.497892C7.17112 -0.154088 6.41664 -0.177735 6.40627 0.497892C6.41923 0.967453 6.43478 1.43364 6.46071 1.89982C6.61887 6.2137 6.6785 10.5276 6.64479 14.8448C6.57738 18.7871 6.7848 22.8037 6.54886 26.7257C5.0399 27.8642 3.56205 29.0668 2.11013 30.3032C1.63307 30.6511 1.14045 30.9585 0.645243 31.2558C0.471531 31.3639 0.297812 31.4788 0.20966 31.7152C-0.0522041 32.7895 -0.0288677 33.9685 0.0670624 35.0799C0.1604 36.1541 0.686722 36.2994 1.41009 36.225C6.15477 36.2622 10.9072 36.1136 15.6467 36.3805C17.5627 36.5122 19.4113 36.8297 21.3222 36.8095L21.3248 36.8129Z" fill="black"/>
<path d="M46.4569 31.7896C46.2754 31.1984 46.4025 30.5296 46.4906 29.9249C45.2643 31.4484 44.9532 30.3505 44.9532 28.6547C44.585 28.9722 44.2946 29.4418 43.9264 29.7391C43.7372 29.8539 43.4805 29.7222 43.3768 29.4925C43.1849 28.9418 43.5272 28.3675 43.6905 27.8743C43.299 28.3642 42.9257 28.881 42.5445 29.3877C42.3967 29.5871 42.1427 29.5803 41.9949 29.3877C41.8471 29.1952 41.8471 28.8709 41.9949 28.6716C42.6353 27.8473 43.2109 26.8947 44.0016 26.3035C44.4294 25.888 45.215 26.1346 44.9869 26.9656C44.8961 27.2156 44.7665 27.4453 44.6576 27.6885C44.9921 27.3507 45.5988 27.2865 45.7154 27.9487C45.7621 28.4182 45.7102 28.908 45.7621 29.381C46.1354 29.0364 46.488 28.4959 46.9729 28.4925C47.4681 28.5162 47.4137 29.3168 47.3074 29.756C47.4733 29.4722 47.6366 29.185 47.7948 28.8945C48.1059 28.3709 48.7126 28.9824 48.4119 29.5127C48.0774 30.1208 47.7118 30.7018 47.4396 31.3606C47.2918 31.6714 47.1725 32.1139 46.8381 32.097C46.6695 32.097 46.5347 31.9653 46.4518 31.7795L46.4569 31.7896Z" fill="black"/>
<path d="M3.54404 31.604C3.72553 31.0129 3.59848 30.344 3.51033 29.7393C4.73669 31.2629 5.04781 30.165 5.04781 28.4691C5.41598 28.7867 5.70637 29.2562 6.07453 29.5535C6.2638 29.6684 6.52048 29.5366 6.62419 29.3069C6.81605 28.7563 6.47381 28.182 6.31046 27.6888C6.70196 28.1786 7.07532 28.6955 7.45645 29.2022C7.60423 29.4015 7.85832 29.3948 8.0061 29.2022C8.15389 29.0096 8.15389 28.6853 8.0061 28.486C7.3657 27.6618 6.79012 26.7091 5.99934 26.118C5.57154 25.7024 4.78595 25.949 5.0141 26.7801C5.10485 27.0301 5.23449 27.2598 5.34338 27.503C5.00892 27.1652 4.40222 27.101 4.28555 27.7631C4.23888 28.2327 4.29074 28.7225 4.23888 29.1954C3.86553 28.8509 3.51293 28.3104 3.02809 28.307C2.53288 28.3306 2.58732 29.1313 2.69363 29.5704C2.52769 29.2866 2.36435 28.9995 2.20619 28.709C1.89507 28.1854 1.28837 28.7968 1.58912 29.3272C1.92359 29.9353 2.28916 30.5163 2.56139 31.175C2.70918 31.4858 2.82845 31.9283 3.16291 31.9115C3.33143 31.9115 3.46625 31.7797 3.54922 31.5939L3.54404 31.604Z" fill="black"/>
<path d="M43.6239 28.9334C43.6109 28.9131 43.6005 28.8895 43.5902 28.8624C42.3456 28.8185 40.7926 29.1901 39.8359 27.9132C39.3848 27.2241 39.3744 25.6735 39.9629 25.1161C41.2463 24.3324 42.4934 25.7613 43.2816 26.9673C43.4735 25.8998 43.8857 24.7276 44.7128 24.2885C46.0818 23.7311 47.8837 24.5959 46.7766 26.741C46.2658 27.5956 45.5399 28.1429 44.775 28.5179C44.3965 28.7071 44.0024 29.4705 43.6213 28.9266L43.6239 28.9334ZM42.8694 27.8659C42.203 26.9775 41.4641 25.6566 40.3881 25.9708C40.3596 25.991 40.357 26.0755 40.3467 26.1093C39.9137 28.0889 41.923 27.8321 42.8694 27.8659ZM43.9609 27.7038C43.9531 27.751 43.9402 27.795 43.9272 27.8389C43.9998 27.8389 44.0724 27.8321 44.1424 27.8287C44.6609 27.4065 45.291 27.2511 45.7421 26.6802C46.0195 26.3491 46.3825 25.9505 46.3255 25.41C46.201 25.2749 46.0221 25.2546 45.8717 25.2006C44.635 24.7377 44.1087 26.4032 43.9635 27.7038H43.9609Z" fill="black"/>
<path d="M5.66204 28.3855C5.675 28.3653 5.68537 28.3416 5.69574 28.3146C6.94024 28.2707 8.49328 28.6423 9.45 27.3653C9.90113 26.6762 9.9115 25.1256 9.32296 24.5682C8.03956 23.7845 6.79246 25.2135 6.00427 26.4195C5.81241 25.352 5.40017 24.1798 4.57309 23.7406C3.20414 23.1832 1.4022 24.048 2.50929 26.1931C3.02006 27.0478 3.74602 27.5951 4.51087 27.97C4.88941 28.1592 5.2835 28.9227 5.66463 28.3788L5.66204 28.3855ZM6.41651 27.3181C7.08284 26.4296 7.82177 25.1087 8.89775 25.4229C8.92627 25.4432 8.92886 25.5276 8.93923 25.5614C9.37222 27.541 7.36285 27.2843 6.41651 27.3181ZM5.32498 27.1559C5.33276 27.2032 5.34572 27.2471 5.35869 27.291C5.28609 27.291 5.2135 27.2843 5.14349 27.2809C4.62495 26.8586 3.99492 26.7032 3.54378 26.1323C3.26636 25.8013 2.90338 25.4026 2.96042 24.8621C3.08487 24.727 3.26377 24.7067 3.41415 24.6527C4.65087 24.1899 5.1772 25.8553 5.32239 27.1559H5.32498Z" fill="black"/>
<line x1="5.95386" y1="28.5581" x2="22.19" y2="28.5581" stroke="black"/>
<line x1="27.6018" y1="28.5581" x2="43.838" y2="28.5581" stroke="black"/>
</svg>
