<svg width="50" height="37" viewBox="0 0 50 37" fill="none" xmlns="http://www.w3.org/2000/svg">
<path d="M34.2804 19.6975C33.7821 19.4396 33.5521 18.8568 33.2153 18.4519C32.4651 20.2134 31.5698 19.156 31.0468 17.967C30.543 18.8233 29.5573 20.0019 29.0344 18.4313C28.9276 18.9548 28.369 19.8446 27.7475 19.2978C27.449 18.9754 27.2793 18.5731 27.0931 18.1862C27.0027 17.9928 27.1068 17.7607 27.3121 17.6808C27.8543 17.4976 27.9364 18.1759 28.15 18.4828C28.3827 18.0341 28.3334 17.4409 28.7003 17.0695C29.4177 16.6956 29.6285 17.8407 29.8448 18.2662C30.2555 17.8922 30.4116 17.0283 31.0687 17.0205C31.8107 17.134 31.86 18.0367 32.2817 18.4983C32.5254 18.065 32.7225 17.2526 33.4262 17.5699C33.9409 17.8871 34.097 18.4029 34.4694 18.8181C34.6391 18.4725 34.7569 18.1037 34.9184 17.7555C34.9978 17.5776 35.1073 17.3687 35.3236 17.3145C36.0164 17.1417 36.1642 17.9722 36.4052 18.3977C36.6735 17.9645 36.7584 17.3274 37.2293 17.0489C38.0452 16.8348 38.3081 17.918 38.6449 18.4132C38.7188 18.1759 38.7873 17.9361 38.8667 17.6988C38.9351 17.4899 38.9981 17.2372 39.2527 17.1727C39.9728 17.0334 40.1946 18.0315 40.5287 18.4596C40.7422 18.0289 40.8161 17.5312 41.0872 17.134C41.2679 16.9638 41.591 16.987 41.7553 17.1675C42.0264 17.5879 42.0921 18.1192 42.3905 18.5293C42.8259 18.1321 43.2119 17.6833 43.6747 17.312C44.0607 16.9638 44.633 17.5002 44.2551 17.8587C44.0607 18.0289 43.8636 18.1966 43.6774 18.3771C42.8752 19.3133 42.0236 19.9013 41.4185 18.4287C41.2241 18.8645 41.0461 19.6434 40.3808 19.4886C39.9263 19.2823 39.7921 18.7175 39.5211 18.3436C39.3102 18.7846 39.3403 19.7414 38.6421 19.7027C38.4477 19.6769 38.3218 19.5454 38.2451 19.3855C37.9932 18.929 37.7605 18.4622 37.4867 18.016C37.1882 18.4931 37.1061 19.1611 36.5722 19.4654C35.9342 19.7362 35.7371 18.7949 35.5126 18.4209C35.2853 18.929 35.0663 19.9348 34.2722 19.7027L34.2804 19.6975Z" fill="black"/>
<path d="M12.6322 19.6975C12.1339 19.4396 11.9039 18.8568 11.5671 18.4519C10.8169 20.2134 9.92158 19.156 9.39862 17.967C8.89482 18.8233 7.90913 20.0019 7.38616 18.4313C7.27938 18.9548 6.72082 19.8446 6.09928 19.2978C5.80083 18.9754 5.63107 18.5731 5.44489 18.1862C5.35453 17.9928 5.45857 17.7607 5.66393 17.6808C6.20606 17.4976 6.2882 18.1759 6.50177 18.4828C6.7345 18.0341 6.68522 17.4409 7.05211 17.0695C7.76948 16.6956 7.98031 17.8407 8.19661 18.2662C8.60732 17.8922 8.7634 17.0283 9.42053 17.0205C10.1625 17.134 10.2118 18.0367 10.6335 18.4983C10.8772 18.065 11.0743 17.2526 11.778 17.5699C12.2927 17.8871 12.4488 18.4029 12.8212 18.8181C12.9909 18.4725 13.1087 18.1037 13.2702 17.7555C13.3496 17.5776 13.4591 17.3687 13.6754 17.3145C14.3682 17.1417 14.516 17.9722 14.757 18.3977C15.0253 17.9645 15.1102 17.3274 15.5811 17.0489C16.3971 16.8348 16.6599 17.918 16.9967 18.4132C17.0706 18.1759 17.1391 17.9361 17.2185 17.6988C17.2869 17.4899 17.3499 17.2372 17.6045 17.1727C18.3246 17.0334 18.5464 18.0315 18.8805 18.4596C19.094 18.0289 19.1679 17.5312 19.439 17.134C19.6197 16.9638 19.9428 16.987 20.1071 17.1675C20.3782 17.5879 20.4439 18.1192 20.7423 18.5293C21.1777 18.1321 21.5637 17.6833 22.0265 17.312C22.4125 16.9638 22.9848 17.5002 22.6069 17.8587C22.4125 18.0289 22.2154 18.1966 22.0292 18.3771C21.227 19.3133 20.3754 19.9013 19.7703 18.4287C19.5759 18.8645 19.398 19.6434 18.7326 19.4886C18.2781 19.2823 18.1439 18.7175 17.8729 18.3436C17.662 18.7846 17.6921 19.7414 16.9939 19.7027C16.7995 19.6769 16.6736 19.5454 16.5969 19.3855C16.345 18.929 16.1123 18.4622 15.8385 18.016C15.5401 18.4931 15.4579 19.1611 14.924 19.4654C14.286 19.7362 14.0889 18.7949 13.8644 18.4209C13.6371 18.929 13.4181 19.9348 12.624 19.7027L12.6322 19.6975Z" fill="black"/>
<path d="M28.6752 36.9994C28.04 37.0163 27.1066 36.773 27.2181 35.7022C27.2078 34.1786 27.2959 32.6618 27.3374 31.1383C27.3374 24.632 27.3555 18.1257 27.3296 11.6161C27.3192 11.2039 27.2985 10.7884 27.2803 10.3797C27.2855 9.72768 28.04 9.70404 28.0582 10.3797C28.1982 14.7037 28.0841 19.0345 28.1178 23.3618C28.1541 27.5271 28.0893 31.6889 27.9959 35.8542C29.0408 36.1751 30.1686 35.8846 31.2239 35.8542C32.541 35.7123 33.8659 35.5738 35.1778 35.4995C39.8187 35.3171 44.4623 35.4184 49.1059 35.3981C49.2925 34.4286 49.2329 33.3848 49.1033 32.4085C47.3713 31.4525 45.9039 29.9154 44.273 28.7365C43.9775 28.5067 43.6871 28.2601 43.3889 28.0304C43.0467 27.8108 42.6915 27.5203 42.6604 26.9731C42.4866 24.6692 42.6163 22.3383 42.5774 20.0242C42.5981 15.6563 42.5307 11.285 42.6085 6.92046C42.7018 4.8429 42.733 2.76197 42.8159 0.684416C42.8289 0.0324355 43.5834 0.00878853 43.5937 0.684416C43.5808 1.15398 43.5652 1.62016 43.5393 2.08634C43.3811 6.40022 43.3215 10.7141 43.3552 15.0314C43.4226 18.9736 43.2152 22.9902 43.4511 26.9123C44.9601 28.0507 46.438 29.2533 47.8899 30.4897C48.3669 30.8377 48.8595 31.1451 49.3548 31.4423C49.5285 31.5504 49.7022 31.6653 49.7903 31.9018C50.0522 32.976 50.0289 34.155 49.9329 35.2664C49.8396 36.3406 49.3133 36.4859 48.5899 36.4116C43.8452 36.4487 39.0928 36.3001 34.3533 36.567C32.4373 36.6987 30.5887 37.0163 28.6778 36.996L28.6752 36.9994Z" fill="black"/>
<path d="M21.3243 36.8129C21.9595 36.8297 22.8929 36.5865 22.7814 35.5156C22.7918 33.9921 22.7036 32.4753 22.6621 30.9518C22.6621 24.4455 22.644 17.9392 22.6699 11.4295C22.6803 11.0174 22.701 10.6019 22.7192 10.1931C22.714 9.54116 21.9595 9.51751 21.9413 10.1931C21.8013 14.5172 21.9154 18.8479 21.8817 23.1753C21.8454 27.3406 21.9102 31.5024 22.0036 35.6677C20.9587 35.9886 19.8309 35.6981 18.7756 35.6677C17.4585 35.5258 16.1337 35.3873 14.8217 35.313C10.1808 35.1305 5.53721 35.2319 0.893654 35.2116C0.706978 34.2421 0.766613 33.1982 0.896248 32.222C2.62819 31.266 4.09566 29.7289 5.72648 28.5499C6.02205 28.3202 6.31243 28.0736 6.6106 27.8439C6.95284 27.6243 7.30804 27.3338 7.33915 26.7865C7.51286 24.4827 7.38323 22.1517 7.42212 19.8377C7.40138 15.4698 7.46879 11.0985 7.39101 6.73393C7.29767 4.65638 7.26656 2.57545 7.18359 0.497892C7.17063 -0.154088 6.41615 -0.177735 6.40578 0.497892C6.41874 0.967453 6.4343 1.43364 6.46022 1.89982C6.61838 6.2137 6.67801 10.5276 6.6443 14.8448C6.57689 18.7871 6.78431 22.8037 6.54837 26.7257C5.03941 27.8642 3.56156 29.0668 2.10964 30.3032C1.63258 30.6511 1.13996 30.9585 0.644754 31.2558C0.471043 31.3639 0.297323 31.4788 0.209171 31.7152C-0.0526924 32.7895 -0.029356 33.9685 0.0665741 35.0799C0.159912 36.1541 0.686234 36.2994 1.4096 36.225C6.15428 36.2622 10.9067 36.1136 15.6462 36.3805C17.5622 36.5122 19.4109 36.8297 21.3217 36.8095L21.3243 36.8129Z" fill="black"/>
<path d="M46.4562 31.7896C46.2747 31.1984 46.4018 30.5296 46.4899 29.9249C45.2636 31.4484 44.9524 30.3505 44.9524 28.6547C44.5843 28.9722 44.2939 29.4418 43.9257 29.7391C43.7364 29.8539 43.4798 29.7222 43.3761 29.4925C43.1842 28.9418 43.5264 28.3675 43.6898 27.8743C43.2983 28.3642 42.9249 28.881 42.5438 29.3877C42.396 29.5871 42.1419 29.5803 41.9941 29.3877C41.8464 29.1952 41.8464 28.8709 41.9941 28.6716C42.6345 27.8473 43.2101 26.8947 44.0009 26.3035C44.4287 25.888 45.2143 26.1346 44.9861 26.9656C44.8954 27.2156 44.7658 27.4453 44.6569 27.6885C44.9913 27.3507 45.598 27.2865 45.7147 27.9487C45.7614 28.4182 45.7095 28.908 45.7614 29.381C46.1347 29.0364 46.4873 28.4959 46.9722 28.4925C47.4674 28.5162 47.4129 29.3168 47.3066 29.756C47.4726 29.4722 47.6359 29.185 47.7941 28.8945C48.1052 28.3709 48.7119 28.9824 48.4111 29.5127C48.0767 30.1208 47.7111 30.7018 47.4388 31.3606C47.2911 31.6714 47.1718 32.1139 46.8373 32.097C46.6688 32.097 46.534 31.9653 46.451 31.7795L46.4562 31.7896Z" fill="black"/>
<path d="M3.54355 31.604C3.72504 31.0129 3.59799 30.344 3.50984 29.7393C4.7362 31.2629 5.04732 30.165 5.04732 28.4691C5.41549 28.7867 5.70588 29.2562 6.07405 29.5535C6.26331 29.6684 6.51999 29.5366 6.6237 29.3069C6.81556 28.7563 6.47332 28.182 6.30998 27.6888C6.70148 28.1786 7.07483 28.6955 7.45596 29.2022C7.60375 29.4015 7.85783 29.3948 8.00562 29.2022C8.1534 29.0096 8.1534 28.6853 8.00562 28.486C7.36521 27.6618 6.78963 26.7091 5.99885 26.118C5.57106 25.7024 4.78546 25.949 5.01362 26.7801C5.10436 27.0301 5.234 27.2598 5.3429 27.503C5.00844 27.1652 4.40174 27.101 4.28506 27.7631C4.23839 28.2327 4.29025 28.7225 4.2384 29.1954C3.86504 28.8509 3.51244 28.3104 3.0276 28.307C2.53239 28.3306 2.58684 29.1313 2.69314 29.5704C2.5272 29.2866 2.36386 28.9995 2.2057 28.709C1.89458 28.1854 1.28788 28.7968 1.58864 29.3272C1.9231 29.9353 2.28867 30.5163 2.56091 31.175C2.70869 31.4858 2.82796 31.9283 3.16242 31.9115C3.33095 31.9115 3.46576 31.7797 3.54873 31.5939L3.54355 31.604Z" fill="black"/>
<path d="M43.262 25.8953C43.2491 25.875 43.2387 25.8514 43.2283 25.8244C41.9838 25.7804 40.4308 26.152 39.4741 24.8751C39.0229 24.186 39.0126 22.6354 39.6011 22.078C40.8845 21.2943 42.1316 22.7232 42.9198 23.9292C43.1117 22.8617 43.5239 21.6895 44.351 21.2504C45.7199 20.693 47.5219 21.5578 46.4148 23.7029C45.904 24.5576 45.1781 25.1048 44.4132 25.4798C44.0347 25.669 43.6406 26.4324 43.2594 25.8885L43.262 25.8953ZM42.5076 24.8278C41.8412 23.9394 41.1023 22.6185 40.0263 22.9327C39.9978 22.9529 39.9952 23.0374 39.9848 23.0712C39.5519 25.0508 41.5612 24.794 42.5076 24.8278ZM43.5991 24.6657C43.5913 24.713 43.5783 24.7569 43.5654 24.8008C43.638 24.8008 43.7106 24.794 43.7806 24.7907C44.2991 24.3684 44.9292 24.213 45.3803 23.6421C45.6577 23.311 46.0207 22.9124 45.9637 22.3719C45.8392 22.2368 45.6603 22.2165 45.5099 22.1625C44.2732 21.6997 43.7469 23.3651 43.6017 24.6657H43.5991Z" fill="black"/>
<path d="M6.73748 25.7093C6.75044 25.689 6.76081 25.6654 6.77118 25.6383C8.01568 25.5944 9.56872 25.966 10.5254 24.6891C10.9766 23.9999 10.9869 22.4494 10.3984 21.892C9.115 21.1082 7.8679 22.5372 7.07971 23.7432C6.88785 22.6757 6.47561 21.5035 5.64853 21.0643C4.27958 20.5069 2.47764 21.3717 3.58473 23.5169C4.0955 24.3715 4.82146 24.9188 5.58631 25.2938C5.96485 25.4829 6.35893 26.2464 6.74006 25.7025L6.73748 25.7093ZM7.49195 24.6418C8.15828 23.7533 8.89721 22.4325 9.97319 22.7466C10.0017 22.7669 10.0043 22.8514 10.0147 22.8851C10.4477 24.8647 8.43829 24.608 7.49195 24.6418ZM6.40042 24.4796C6.4082 24.5269 6.42116 24.5708 6.43413 24.6148C6.36153 24.6148 6.28894 24.608 6.21893 24.6046C5.70039 24.1824 5.07036 24.027 4.61922 23.4561C4.3418 23.125 3.97882 22.7264 4.03586 22.1859C4.16031 22.0507 4.33921 22.0305 4.48959 21.9764C5.72631 21.5136 6.25264 23.179 6.39783 24.4796H6.40042Z" fill="black"/>
<path d="M39.7021 31.1481C39.5336 30.9758 39.5051 30.6582 39.6321 30.4353C40.2492 29.361 40.7937 28.2868 41.3407 27.1619C41.6519 26.5268 41.9448 25.8782 42.2663 25.2498C42.383 25.0201 42.6086 24.9222 42.7978 25.0674C42.9716 25.1992 43.0545 25.5336 42.9378 25.7599C42.0615 27.5436 41.2266 29.361 40.2492 31.0535C40.1222 31.273 39.8681 31.3102 39.7021 31.1447V31.1481Z" fill="black"/>
<path d="M10.2974 30.9625C10.4659 30.7902 10.4944 30.4727 10.3674 30.2497C9.75032 29.1755 9.20585 28.1012 8.65878 26.9763C8.34766 26.3412 8.05468 25.6926 7.73318 25.0643C7.61651 24.8346 7.39094 24.7366 7.20167 24.8819C7.02796 25.0136 6.945 25.348 7.06167 25.5744C7.93801 27.358 8.77286 29.1755 9.75032 30.8679C9.87736 31.0875 10.1314 31.1247 10.2974 30.9591V30.9625Z" fill="black"/>
</svg>
